<?xml version="1.0" encoding="UTF-8"?>
<svg id="Capa_2" data-name="Capa 2" xmlns="http://www.w3.org/2000/svg" viewBox="0 0 750 563.08" shape-rendering="geometricPrecision">
  <defs>
    <style>
      .cls-1 {
        fill: none;
        stroke: #1e1e1e;
        stroke-miterlimit: 10;
      }

      .cls-2 {
        fill: #313866;
      }

      .cls-3 {
        fill: #d80025;
      }

      .cls-4 {
        fill: #4b5699;
      }

      .cls-5 {
        fill: #ffc800;
      }

      .cls-6 {
        fill: #003189;
      }
    </style>
  </defs>
  <g>
    <g>
      <g>
        <path class="cls-2" d="M1199.32,249.57c0,4.59-1.06,9.14-3.17,13.62-2.11,4.49-5.08,8.29-8.89,11.4-4.18,3.38-9.05,6.02-14.61,7.92s-12.26,2.85-20.09,2.85c-8.41,0-15.97-.79-22.68-2.38-6.71-1.58-13.54-3.93-20.48-7.05v-19.64h1.1c5.9,4.96,12.71,8.79,20.44,11.48,7.73,2.69,14.99,4.04,21.77,4.04,9.61,0,17.09-1.82,22.44-5.46,5.35-3.64,8.03-8.5,8.03-14.57,0-5.23-1.27-9.08-3.8-11.56-2.53-2.48-6.38-4.41-11.55-5.78-3.92-1.06-8.16-1.93-12.73-2.61-4.57-.69-9.41-1.56-14.53-2.61-10.34-2.22-18-6.01-22.99-11.36-4.99-5.36-7.48-12.34-7.48-20.95,0-9.87,4.12-17.97,12.38-24.28,8.25-6.31,18.72-9.46,31.41-9.46,8.2,0,15.72.79,22.56,2.38,6.84,1.58,12.9,3.54,18.17,5.86v18.53h-1.1c-4.44-3.8-10.27-6.96-17.51-9.46-7.23-2.51-14.63-3.76-22.21-3.76-8.3,0-14.97,1.74-20.01,5.23-5.04,3.49-7.56,7.97-7.56,13.46,0,4.91,1.25,8.77,3.76,11.56,2.51,2.8,6.92,4.94,13.24,6.42,3.34.74,8.09,1.64,14.26,2.69,6.16,1.06,11.38,2.14,15.67,3.25,8.67,2.32,15.2,5.83,19.58,10.53,4.39,4.7,6.58,11.27,6.58,19.72Z"/>
        <path class="cls-2" d="M1312.03,235.87c0,8.55-.93,16.01-2.78,22.37-1.85,6.36-4.9,11.66-9.12,15.88-4.02,4.01-8.72,6.94-14.1,8.79-5.38,1.85-11.64,2.77-18.8,2.77s-13.68-.98-19.11-2.93c-5.43-1.95-10-4.83-13.71-8.63-4.23-4.33-7.27-9.56-9.13-15.68-1.85-6.12-2.78-13.65-2.78-22.57v-70.57h15.51v71.36c0,6.39.43,11.43,1.29,15.13.86,3.7,2.31,7.05,4.35,10.06,2.3,3.43,5.42,6.02,9.36,7.76,3.94,1.74,8.68,2.61,14.22,2.61s10.34-.86,14.26-2.57c3.92-1.72,7.05-4.32,9.4-7.8,2.04-3.01,3.49-6.45,4.35-10.34.86-3.88,1.29-8.7,1.29-14.45v-71.76h15.51v70.57Z"/>
        <path class="cls-2" d="M1382.76,283.23h-46.06v-12.04h15.27v-93.85h-15.27v-12.04h46.06v12.04h-15.27v93.85h15.27v12.04Z"/>
        <path class="cls-2" d="M1507.69,224.38c0,10.72-2.31,20.43-6.93,29.15-4.62,8.71-10.77,15.47-18.45,20.28-5.33,3.33-11.27,5.73-17.82,7.21-6.55,1.48-15.18,2.22-25.89,2.22h-29.45v-117.93h29.14c11.38,0,20.43.83,27.14,2.49,6.71,1.66,12.39,3.95,17.04,6.85,7.94,5.02,14.12,11.7,18.56,20.04,4.44,8.34,6.66,18.24,6.66,29.7ZM1491.47,224.15c0-9.24-1.59-17.03-4.78-23.36-3.19-6.34-7.94-11.33-14.26-14.97-4.6-2.64-9.48-4.47-14.65-5.5-5.17-1.03-11.36-1.54-18.56-1.54h-14.57v91h14.57c7.47,0,13.98-.55,19.54-1.66,5.56-1.11,10.66-3.17,15.31-6.18,5.8-3.75,10.14-8.69,13.04-14.81,2.9-6.12,4.35-13.78,4.35-22.97Z"/>
      </g>
      <g>
        <path class="cls-2" d="M1086.31,388.08h-11.21v-2.9h3.72v-22.6h-3.72v-2.9h11.21v2.9h-3.72v22.6h3.72v2.9Z"/>
        <path class="cls-2" d="M1110.26,388.08h-3.59v-12.13c0-.98-.06-1.9-.17-2.76-.11-.86-.32-1.53-.63-2.01-.32-.53-.78-.93-1.37-1.19-.6-.26-1.37-.39-2.33-.39s-2,.24-3.07.72c-1.07.48-2.09,1.1-3.07,1.85v15.91h-3.59v-21.3h3.59v2.37c1.12-.93,2.28-1.65,3.47-2.17,1.19-.52,2.42-.78,3.68-.78,2.3,0,4.06.69,5.26,2.08s1.81,3.38,1.81,5.99v13.83Z"/>
        <path class="cls-2" d="M1128.63,361.87h-.19c-.39-.11-.91-.23-1.54-.35s-1.2-.18-1.68-.18c-1.54,0-2.65.34-3.35,1.02-.69.68-1.04,1.91-1.04,3.69v.72h6.47v3.01h-6.35v18.29h-3.58v-18.29h-2.42v-3.01h2.42v-.71c0-2.53.63-4.47,1.89-5.83s3.08-2.03,5.45-2.03c.8,0,1.52.04,2.17.11.64.08,1.23.17,1.76.27v3.28Z"/>
        <path class="cls-2" d="M1149.06,377.43c0,3.47-.89,6.21-2.67,8.22-1.78,2.01-4.17,3.01-7.15,3.01s-5.41-1-7.18-3.01c-1.77-2.01-2.66-4.75-2.66-8.22s.89-6.21,2.66-8.23c1.77-2.01,4.17-3.02,7.18-3.02s5.37,1.01,7.15,3.02c1.78,2.02,2.67,4.76,2.67,8.23ZM1145.36,377.43c0-2.76-.54-4.81-1.62-6.15-1.08-1.34-2.58-2.01-4.5-2.01s-3.46.67-4.53,2.01c-1.07,1.34-1.61,3.39-1.61,6.15s.54,4.7,1.62,6.07c1.08,1.38,2.59,2.07,4.52,2.07s3.4-.68,4.49-2.05c1.09-1.37,1.63-3.4,1.63-6.09Z"/>
        <path class="cls-2" d="M1167.9,370.68h-.19c-.53-.13-1.05-.22-1.55-.28s-1.1-.09-1.78-.09c-1.11,0-2.17.25-3.2.73s-2.02,1.12-2.98,1.9v15.12h-3.59v-21.3h3.59v3.15c1.42-1.14,2.68-1.96,3.77-2.43,1.09-.48,2.2-.72,3.33-.72.62,0,1.07.02,1.35.05.28.03.7.09,1.26.18v3.68Z"/>
        <path class="cls-2" d="M1202.37,388.08h-3.59v-12.13c0-.92-.04-1.8-.12-2.65s-.26-1.53-.52-2.04c-.29-.55-.71-.96-1.26-1.24-.55-.28-1.33-.42-2.36-.42s-2.01.25-3.01.75c-1,.5-2.01,1.14-3.01,1.92.04.29.07.63.1,1.02.03.39.04.77.04,1.15v13.64h-3.59v-12.13c0-.94-.04-1.83-.12-2.68-.08-.85-.26-1.52-.53-2.03-.29-.55-.71-.96-1.26-1.23s-1.33-.41-2.36-.41-1.96.24-2.95.72c-.99.48-1.97,1.1-2.95,1.85v15.91h-3.59v-21.3h3.59v2.37c1.12-.93,2.23-1.65,3.35-2.17,1.11-.52,2.3-.78,3.56-.78,1.45,0,2.68.3,3.69.92,1.01.61,1.76,1.46,2.26,2.54,1.45-1.22,2.77-2.1,3.97-2.64,1.2-.54,2.47-.81,3.83-.81,2.34,0,4.07.71,5.18,2.13,1.11,1.42,1.67,3.4,1.67,5.94v13.83Z"/>
        <path class="cls-2" d="M1225.83,388.08h-3.57v-2.27c-.32.22-.75.52-1.29.91s-1.07.7-1.57.92c-.6.29-1.29.54-2.06.73-.78.2-1.68.29-2.73.29-1.92,0-3.55-.63-4.88-1.91-1.33-1.27-2-2.89-2-4.86,0-1.61.35-2.92,1.04-3.92.69-1,1.68-1.78,2.96-2.36,1.3-.57,2.86-.96,4.67-1.16,1.82-.2,3.77-.36,5.86-.46v-.55c0-.81-.14-1.49-.43-2.02s-.7-.95-1.23-1.26c-.51-.29-1.12-.49-1.83-.59-.71-.1-1.46-.15-2.23-.15-.94,0-1.99.12-3.15.37-1.16.25-2.35.61-3.59,1.08h-.19v-3.64c.7-.19,1.71-.4,3.03-.63,1.32-.23,2.62-.34,3.91-.34,1.5,0,2.81.12,3.92.37,1.11.25,2.08.67,2.89,1.27.8.58,1.41,1.34,1.83,2.27.42.93.63,2.08.63,3.45v14.46ZM1222.26,382.83v-5.93c-1.09.06-2.38.16-3.86.29-1.48.13-2.65.31-3.52.55-1.03.29-1.86.75-2.5,1.36-.63.62-.95,1.47-.95,2.55,0,1.22.37,2.14,1.11,2.76.74.62,1.86.93,3.38.93,1.26,0,2.41-.25,3.45-.73,1.04-.49,2.01-1.08,2.9-1.76Z"/>
        <path class="cls-2" d="M1248.48,386.74c-1.2.57-2.33,1.02-3.4,1.33s-2.21.48-3.42.48c-1.54,0-2.95-.23-4.23-.68-1.28-.45-2.38-1.13-3.3-2.05-.93-.92-1.65-2.07-2.16-3.47s-.76-3.03-.76-4.9c0-3.48.96-6.22,2.87-8.2s4.44-2.97,7.58-2.97c1.22,0,2.42.17,3.6.51,1.18.34,2.25.76,3.23,1.26v3.99h-.19c-1.09-.85-2.22-1.51-3.39-1.96-1.16-.46-2.3-.69-3.4-.69-2.03,0-3.64.68-4.82,2.05-1.18,1.37-1.76,3.37-1.76,6.02s.58,4.54,1.73,5.92c1.15,1.38,2.77,2.07,4.85,2.07.72,0,1.46-.1,2.21-.29s1.42-.44,2.02-.74c.52-.27,1.01-.55,1.47-.85.46-.3.82-.56,1.09-.77h.19v3.95Z"/>
        <path class="cls-2" d="M1256.93,363.21h-4.04v-3.72h4.04v3.72ZM1256.71,388.08h-3.59v-21.3h3.59v21.3Z"/>
        <path class="cls-2" d="M1281.96,377.43c0,3.47-.89,6.21-2.67,8.22-1.78,2.01-4.16,3.01-7.15,3.01s-5.41-1-7.18-3.01c-1.77-2.01-2.66-4.75-2.66-8.22s.89-6.21,2.66-8.23c1.77-2.01,4.17-3.02,7.18-3.02s5.37,1.01,7.15,3.02c1.78,2.02,2.67,4.76,2.67,8.23ZM1278.26,377.43c0-2.76-.54-4.81-1.62-6.15-1.08-1.34-2.58-2.01-4.5-2.01s-3.46.67-4.53,2.01c-1.08,1.34-1.61,3.39-1.61,6.15s.54,4.7,1.62,6.07c1.08,1.38,2.59,2.07,4.52,2.07s3.4-.68,4.49-2.05c1.09-1.37,1.63-3.4,1.63-6.09ZM1278.07,356.11l-5.21,7.13h-2.84l3.41-7.13h4.63Z"/>
        <path class="cls-2" d="M1305.32,388.08h-3.58v-12.13c0-.98-.06-1.9-.17-2.76-.12-.86-.32-1.53-.63-2.01-.32-.53-.78-.93-1.37-1.19-.6-.26-1.37-.39-2.33-.39s-2,.24-3.07.72-2.09,1.1-3.07,1.85v15.91h-3.59v-21.3h3.59v2.37c1.12-.93,2.28-1.65,3.47-2.17s2.42-.78,3.68-.78c2.3,0,4.05.69,5.26,2.08,1.21,1.39,1.81,3.38,1.81,5.99v13.83Z"/>
        <path class="cls-2" d="M1343.24,388.08h-3.59v-2.23c-1.03.89-2.1,1.58-3.22,2.08s-2.33.74-3.64.74c-2.54,0-4.56-.98-6.06-2.94s-2.24-4.67-2.24-8.14c0-1.81.26-3.41.77-4.83s1.21-2.61,2.09-3.6c.86-.97,1.87-1.7,3.02-2.21,1.15-.51,2.34-.76,3.58-.76,1.12,0,2.11.12,2.98.35.86.24,1.77.6,2.73,1.1v-9.23h3.59v29.68ZM1339.65,382.83v-12.23c-.97-.43-1.83-.73-2.59-.9-.76-.17-1.6-.25-2.5-.25-2.01,0-3.57.7-4.69,2.1-1.12,1.4-1.68,3.38-1.68,5.95s.43,4.45,1.3,5.77c.86,1.32,2.25,1.97,4.16,1.97,1.02,0,2.05-.23,3.09-.68s2.02-1.03,2.92-1.75Z"/>
        <path class="cls-2" d="M1368.13,377.8h-15.7c0,1.31.2,2.45.59,3.42.39.97.93,1.77,1.62,2.39.66.61,1.45,1.07,2.36,1.37.91.31,1.91.46,3,.46,1.45,0,2.91-.29,4.38-.87,1.47-.58,2.51-1.15,3.14-1.71h.19v3.91c-1.21.51-2.44.93-3.7,1.28-1.26.34-2.58.52-3.97.52-3.54,0-6.29-.96-8.28-2.87-1.98-1.91-2.97-4.63-2.97-8.15s.95-6.25,2.85-8.3c1.9-2.05,4.4-3.07,7.5-3.07,2.87,0,5.09.84,6.65,2.52,1.56,1.68,2.34,4.06,2.34,7.15v1.95ZM1364.64,375.05c-.01-1.88-.49-3.34-1.42-4.37-.93-1.03-2.36-1.54-4.26-1.54s-3.45.57-4.59,1.7c-1.14,1.13-1.78,2.54-1.94,4.22h12.21Z"/>
        <path class="cls-2" d="M1377.19,388.08h-3.59v-29.68h3.59v29.68Z"/>
        <path class="cls-2" d="M1422.3,373.91c0,2.58-.56,4.92-1.69,7.02s-2.62,3.73-4.49,4.88c-1.3.8-2.74,1.38-4.34,1.74-1.6.36-3.7.53-6.3.53h-7.17v-28.4h7.09c2.77,0,4.97.2,6.61.6,1.63.4,3.02.95,4.15,1.65,1.93,1.21,3.44,2.82,4.52,4.83,1.08,2.01,1.62,4.39,1.62,7.15ZM1418.35,373.85c0-2.22-.39-4.1-1.16-5.63-.78-1.53-1.93-2.73-3.47-3.61-1.12-.64-2.31-1.08-3.57-1.33-1.26-.25-2.77-.37-4.52-.37h-3.55v21.92h3.55c1.82,0,3.4-.13,4.76-.4,1.35-.27,2.6-.76,3.73-1.49,1.41-.9,2.47-2.09,3.18-3.57.71-1.47,1.06-3.32,1.06-5.53Z"/>
        <path class="cls-2" d="M1445.95,377.8h-15.7c0,1.31.2,2.45.59,3.42s.93,1.77,1.62,2.39c.66.61,1.45,1.07,2.36,1.37.91.31,1.91.46,3,.46,1.45,0,2.91-.29,4.38-.87,1.47-.58,2.51-1.15,3.14-1.71h.19v3.91c-1.21.51-2.44.93-3.7,1.28-1.26.34-2.58.52-3.97.52-3.54,0-6.29-.96-8.28-2.87-1.98-1.91-2.98-4.63-2.98-8.15s.95-6.25,2.85-8.3c1.9-2.05,4.4-3.07,7.51-3.07,2.87,0,5.09.84,6.65,2.52,1.56,1.68,2.34,4.06,2.34,7.15v1.95ZM1442.46,375.05c-.01-1.88-.49-3.34-1.42-4.37s-2.36-1.54-4.26-1.54-3.45.57-4.59,1.7c-1.14,1.13-1.78,2.54-1.94,4.22h12.21Z"/>
        <path class="cls-2" d="M1470.13,377.17c0,1.73-.25,3.31-.74,4.74s-1.2,2.64-2.1,3.63c-.84.94-1.83,1.67-2.97,2.18-1.14.51-2.34.77-3.61.77-1.11,0-2.11-.12-3-.36-.9-.24-1.81-.62-2.74-1.13v8.93h-3.59v-29.16h3.59v2.23c.95-.8,2.03-1.47,3.21-2.01,1.19-.54,2.46-.81,3.8-.81,2.57,0,4.57.97,6,2.91,1.43,1.94,2.15,4.63,2.15,8.08ZM1466.43,377.26c0-2.57-.44-4.49-1.32-5.76-.88-1.27-2.22-1.91-4.04-1.91-1.03,0-2.07.22-3.11.67-1.04.45-2.04,1.03-2.99,1.75v12.07c1.02.46,1.89.77,2.62.93.73.17,1.56.25,2.49.25,2,0,3.55-.67,4.67-2.02,1.12-1.35,1.68-3.34,1.68-5.99Z"/>
        <path class="cls-2" d="M1493.88,377.43c0,3.47-.89,6.21-2.67,8.22-1.78,2.01-4.16,3.01-7.15,3.01s-5.41-1-7.18-3.01c-1.77-2.01-2.66-4.75-2.66-8.22s.89-6.21,2.66-8.23c1.77-2.01,4.17-3.02,7.18-3.02s5.37,1.01,7.15,3.02c1.78,2.02,2.67,4.76,2.67,8.23ZM1490.18,377.43c0-2.76-.54-4.81-1.62-6.15-1.08-1.34-2.58-2.01-4.5-2.01s-3.46.67-4.53,2.01c-1.07,1.34-1.61,3.39-1.61,6.15s.54,4.7,1.62,6.07c1.08,1.38,2.59,2.07,4.52,2.07s3.4-.68,4.49-2.05c1.09-1.37,1.63-3.4,1.63-6.09Z"/>
        <path class="cls-2" d="M1512.72,370.68h-.19c-.53-.13-1.05-.22-1.55-.28s-1.1-.09-1.78-.09c-1.11,0-2.17.25-3.21.73-1.03.49-2.02,1.12-2.97,1.9v15.12h-3.59v-21.3h3.59v3.15c1.42-1.14,2.68-1.96,3.77-2.43,1.09-.48,2.2-.72,3.33-.72.62,0,1.07.02,1.35.05.28.03.7.09,1.26.18v3.68Z"/>
        <path class="cls-2" d="M1527.16,387.89c-.67.18-1.41.32-2.2.44-.79.11-1.5.17-2.13.17-2.17,0-3.83-.58-4.96-1.75-1.13-1.17-1.7-3.04-1.7-5.63v-11.33h-2.42v-3.01h2.42v-6.12h3.59v6.12h7.4v3.01h-7.4v9.71c0,1.12.03,1.99.08,2.62.05.63.23,1.22.53,1.76.28.51.66.88,1.15,1.12.49.24,1.24.35,2.24.35.58,0,1.19-.09,1.83-.26.64-.17,1.09-.31,1.37-.43h.19v3.22Z"/>
        <path class="cls-2" d="M1549.32,377.8h-15.7c0,1.31.2,2.45.59,3.42.39.97.93,1.77,1.62,2.39.66.61,1.45,1.07,2.36,1.37.91.31,1.91.46,3,.46,1.45,0,2.91-.29,4.38-.87,1.47-.58,2.51-1.15,3.14-1.71h.19v3.91c-1.21.51-2.44.93-3.7,1.28-1.26.34-2.58.52-3.97.52-3.54,0-6.29-.96-8.28-2.87-1.98-1.91-2.97-4.63-2.97-8.15s.95-6.25,2.85-8.3c1.9-2.05,4.4-3.07,7.5-3.07,2.87,0,5.09.84,6.65,2.52,1.56,1.68,2.34,4.06,2.34,7.15v1.95ZM1545.83,375.05c-.01-1.88-.49-3.34-1.42-4.37-.93-1.03-2.36-1.54-4.26-1.54s-3.45.57-4.59,1.7c-1.14,1.13-1.78,2.54-1.94,4.22h12.21Z"/>
      </g>
      <g>
        <path class="cls-2" d="M1133.71,326.33c0,1.17-.27,2.33-.82,3.47s-1.31,2.11-2.29,2.91c-1.08.86-2.33,1.54-3.77,2.02-1.43.48-3.16.73-5.18.73-2.17,0-4.12-.2-5.85-.61s-3.49-1-5.28-1.8v-5.01h.28c1.52,1.27,3.28,2.24,5.27,2.93,1.99.69,3.87,1.03,5.62,1.03,2.48,0,4.41-.46,5.79-1.39,1.38-.93,2.07-2.17,2.07-3.72,0-1.33-.33-2.32-.98-2.95-.65-.63-1.65-1.12-2.98-1.47-1.01-.27-2.1-.49-3.28-.67-1.18-.17-2.43-.4-3.75-.67-2.67-.57-4.64-1.53-5.93-2.9-1.29-1.37-1.93-3.15-1.93-5.34,0-2.52,1.06-4.58,3.19-6.19,2.13-1.61,4.83-2.41,8.1-2.41,2.11,0,4.05.2,5.82.61s3.33.9,4.69,1.5v4.73h-.28c-1.14-.97-2.65-1.77-4.51-2.41s-3.77-.96-5.73-.96c-2.14,0-3.86.44-5.16,1.33-1.3.89-1.95,2.03-1.95,3.43,0,1.25.32,2.24.97,2.95s1.78,1.26,3.41,1.64c.86.19,2.09.42,3.68.69,1.59.27,2.94.54,4.04.83,2.24.59,3.92,1.49,5.05,2.69s1.7,2.88,1.7,5.03Z"/>
        <path class="cls-2" d="M1143.92,308.58h-4.28v-3.94h4.28v3.94ZM1143.67,334.92h-3.8v-22.56h3.8v22.56Z"/>
        <path class="cls-2" d="M1167.31,328.42c0,2.06-.85,3.75-2.56,5.07-1.7,1.32-4.03,1.98-6.98,1.98-1.67,0-3.2-.2-4.59-.6-1.39-.4-2.56-.83-3.5-1.3v-4.26h.2c1.2.9,2.53,1.62,4,2.15,1.47.53,2.88.8,4.22.8,1.67,0,2.98-.27,3.92-.81.94-.54,1.41-1.39,1.41-2.54,0-.89-.26-1.56-.77-2.02s-1.49-.85-2.95-1.17c-.54-.12-1.24-.26-2.11-.42-.87-.16-1.66-.34-2.37-.53-1.98-.53-3.38-1.3-4.21-2.31-.83-1.02-1.24-2.26-1.24-3.75,0-.93.19-1.8.58-2.62s.97-1.56,1.75-2.2c.75-.63,1.71-1.13,2.88-1.5,1.16-.37,2.47-.56,3.91-.56,1.35,0,2.71.17,4.09.5s2.53.73,3.44,1.2v4.06h-.2c-.97-.71-2.15-1.32-3.53-1.81-1.39-.49-2.75-.74-4.08-.74s-2.56.27-3.51.8c-.96.53-1.43,1.32-1.43,2.37,0,.93.29,1.63.87,2.1.57.47,1.48.85,2.75,1.15.7.16,1.48.32,2.35.48.87.16,1.59.31,2.17.44,1.76.4,3.12,1.1,4.08,2.08.96,1,1.43,2.32,1.43,3.96Z"/>
        <path class="cls-2" d="M1184.46,334.72c-.71.19-1.49.34-2.33.46s-1.59.18-2.25.18c-2.3,0-4.05-.62-5.25-1.86-1.2-1.24-1.8-3.22-1.8-5.96v-12h-2.57v-3.19h2.57v-6.48h3.8v6.48h7.84v3.19h-7.84v10.28c0,1.19.03,2.11.08,2.78.05.67.24,1.29.57,1.87.29.54.7.93,1.22,1.18.52.25,1.31.37,2.37.37.62,0,1.27-.09,1.94-.27.67-.18,1.16-.33,1.45-.45h.2v3.41Z"/>
        <path class="cls-2" d="M1207.93,324.03h-16.62c0,1.39.21,2.6.63,3.63.42,1.03.99,1.88,1.72,2.54.7.65,1.53,1.13,2.49,1.45s2.02.49,3.18.49c1.54,0,3.08-.31,4.64-.92,1.55-.61,2.66-1.21,3.32-1.81h.2v4.14c-1.28.54-2.58.99-3.92,1.35-1.33.36-2.73.55-4.2.55-3.74,0-6.67-1.01-8.77-3.04s-3.15-4.91-3.15-8.64,1.01-6.62,3.02-8.79,4.66-3.25,7.95-3.25c3.04,0,5.39.89,7.04,2.67s2.47,4.3,2.47,7.57v2.06ZM1204.23,321.12c-.01-1.99-.51-3.54-1.5-4.63s-2.5-1.64-4.51-1.64-3.65.6-4.86,1.8c-1.21,1.2-1.89,2.69-2.05,4.46h12.93Z"/>
        <path class="cls-2" d="M1246.61,334.92h-3.8v-12.85c0-.97-.04-1.91-.13-2.81-.09-.9-.27-1.62-.56-2.16-.31-.58-.75-1.02-1.33-1.31-.58-.3-1.41-.44-2.51-.44s-2.13.27-3.19.8c-1.06.53-2.13,1.21-3.19,2.03.04.31.07.67.1,1.08.03.41.04.82.04,1.22v14.44h-3.8v-12.85c0-1-.04-1.94-.13-2.84s-.27-1.61-.56-2.15c-.31-.58-.75-1.01-1.33-1.3-.58-.29-1.41-.43-2.5-.43s-2.08.26-3.12.77c-1.04.51-2.08,1.17-3.12,1.96v16.85h-3.8v-22.56h3.8v2.5c1.18-.98,2.37-1.75,3.54-2.3,1.18-.55,2.43-.83,3.77-.83,1.54,0,2.84.32,3.91.97s1.87,1.54,2.39,2.69c1.54-1.29,2.94-2.22,4.2-2.8,1.27-.57,2.62-.86,4.06-.86,2.48,0,4.31.75,5.48,2.25,1.18,1.5,1.77,3.6,1.77,6.29v14.64Z"/>
        <path class="cls-2" d="M1271.46,334.92h-3.78v-2.4c-.34.23-.79.55-1.36.96-.57.41-1.13.74-1.67.98-.63.31-1.36.57-2.18.78-.82.21-1.79.31-2.89.31-2.03,0-3.76-.67-5.17-2.02s-2.12-3.06-2.12-5.15c0-1.71.37-3.09,1.1-4.15.73-1.06,1.78-1.89,3.14-2.5,1.37-.61,3.02-1.02,4.95-1.23,1.93-.21,3.99-.38,6.2-.48v-.59c0-.86-.15-1.58-.46-2.14-.3-.57-.74-1.01-1.3-1.33-.54-.31-1.18-.52-1.94-.63-.75-.11-1.54-.16-2.36-.16-1,0-2.11.13-3.33.39-1.23.26-2.49.64-3.8,1.14h-.2v-3.86c.74-.2,1.81-.42,3.21-.67,1.4-.24,2.78-.36,4.14-.36,1.59,0,2.97.13,4.15.39,1.18.26,2.2.71,3.06,1.34.85.62,1.49,1.42,1.94,2.4.44.98.67,2.2.67,3.66v15.31ZM1267.68,329.36v-6.28c-1.16.07-2.52.17-4.09.3-1.57.13-2.81.33-3.73.59-1.09.31-1.97.79-2.65,1.44-.67.65-1.01,1.55-1.01,2.7,0,1.29.39,2.27,1.17,2.92.78.65,1.97.98,3.58.98,1.33,0,2.55-.26,3.66-.78s2.13-1.14,3.07-1.87Z"/>
        <path class="cls-2" d="M1330.8,322.84c0,2.18-.24,4.08-.72,5.71-.48,1.62-1.26,2.97-2.35,4.05-1.04,1.02-2.25,1.77-3.63,2.24-1.39.47-3,.71-4.85.71s-3.53-.25-4.93-.75-2.58-1.23-3.54-2.2c-1.09-1.1-1.88-2.44-2.35-4-.48-1.56-.72-3.48-.72-5.76v-18h4v18.2c0,1.63.11,2.92.33,3.86.22.94.6,1.8,1.12,2.57.59.88,1.4,1.54,2.41,1.98s2.24.67,3.67.67,2.67-.22,3.68-.66,1.82-1.1,2.42-1.99c.53-.77.9-1.65,1.12-2.64.22-.99.33-2.22.33-3.69v-18.3h4v18ZM1325.79,293.53l-5.51,7.55h-3.01l3.62-7.55h4.91Z"/>
        <path class="cls-2" d="M1357,334.92h-3.8v-12.85c0-1.04-.06-2.01-.18-2.92s-.34-1.62-.67-2.13c-.34-.57-.82-.99-1.45-1.26s-1.46-.41-2.46-.41-2.12.26-3.25.77-2.21,1.17-3.25,1.96v16.85h-3.8v-22.56h3.8v2.5c1.18-.98,2.41-1.75,3.68-2.3,1.27-.55,2.57-.83,3.9-.83,2.44,0,4.3.73,5.58,2.2s1.92,3.58,1.92,6.34v14.64Z"/>
        <path class="cls-2" d="M1368.39,308.58h-4.28v-3.94h4.28v3.94ZM1368.15,334.92h-3.8v-22.56h3.8v22.56Z"/>
        <path class="cls-2" d="M1392.35,333.5c-1.27.61-2.47,1.08-3.61,1.41-1.14.34-2.35.5-3.63.5-1.63,0-3.12-.24-4.48-.72s-2.52-1.2-3.5-2.17c-.98-.97-1.74-2.19-2.28-3.68s-.81-3.21-.81-5.19c0-3.69,1.01-6.58,3.04-8.69,2.03-2.1,4.7-3.15,8.03-3.15,1.29,0,2.56.18,3.81.54,1.25.36,2.39.81,3.42,1.33v4.22h-.2c-1.16-.9-2.35-1.6-3.58-2.08s-2.43-.73-3.61-.73c-2.16,0-3.86.72-5.1,2.17-1.25,1.45-1.87,3.57-1.87,6.37s.61,4.81,1.83,6.27c1.22,1.46,2.93,2.19,5.14,2.19.77,0,1.55-.1,2.34-.3.79-.2,1.51-.46,2.14-.79.55-.28,1.07-.58,1.55-.9s.87-.59,1.15-.82h.2v4.18Z"/>
        <path class="cls-2" d="M1416.45,323.65c0,3.68-.94,6.58-2.83,8.71s-4.41,3.19-7.57,3.19-5.73-1.06-7.61-3.19-2.82-5.03-2.82-8.71.94-6.58,2.82-8.72,4.41-3.2,7.61-3.2,5.69,1.07,7.57,3.2,2.83,5.04,2.83,8.72ZM1412.53,323.65c0-2.92-.57-5.09-1.72-6.51-1.14-1.42-2.73-2.13-4.77-2.13s-3.66.71-4.8,2.13c-1.14,1.42-1.71,3.59-1.71,6.51s.57,4.97,1.72,6.43c1.14,1.46,2.74,2.19,4.79,2.19s3.61-.72,4.76-2.17,1.73-3.6,1.73-6.45Z"/>
        <path class="cls-2" d="M1469.71,334.92h-3.8v-2.36c-1.09.94-2.23,1.68-3.41,2.2-1.19.52-2.47.79-3.86.79-2.69,0-4.83-1.04-6.41-3.11s-2.37-4.95-2.37-8.62c0-1.91.27-3.62.82-5.11.54-1.49,1.28-2.77,2.21-3.82.92-1.02,1.98-1.8,3.2-2.34,1.22-.54,2.48-.81,3.79-.81,1.18,0,2.23.12,3.15.37s1.88.64,2.89,1.16v-9.78h3.8v31.43ZM1465.92,329.36v-12.95c-1.02-.46-1.94-.77-2.75-.95s-1.69-.26-2.65-.26c-2.13,0-3.78.74-4.97,2.22-1.18,1.48-1.78,3.58-1.78,6.3s.46,4.72,1.37,6.11c.92,1.39,2.38,2.09,4.4,2.09,1.08,0,2.17-.24,3.27-.72,1.1-.48,2.13-1.09,3.09-1.85Z"/>
        <path class="cls-2" d="M1496.07,324.03h-16.62c0,1.39.21,2.6.63,3.63.42,1.03.99,1.88,1.72,2.54.7.65,1.53,1.13,2.49,1.45s2.02.49,3.18.49c1.54,0,3.08-.31,4.64-.92,1.56-.61,2.66-1.21,3.32-1.81h.2v4.14c-1.28.54-2.58.99-3.92,1.35-1.33.36-2.73.55-4.2.55-3.74,0-6.67-1.01-8.77-3.04-2.1-2.03-3.15-4.91-3.15-8.64s1.01-6.62,3.02-8.79c2.01-2.17,4.66-3.25,7.95-3.25,3.04,0,5.39.89,7.04,2.67,1.65,1.78,2.47,4.3,2.47,7.57v2.06ZM1492.38,321.12c-.01-1.99-.51-3.54-1.5-4.63-.99-1.09-2.5-1.64-4.51-1.64s-3.65.6-4.86,1.8c-1.21,1.2-1.89,2.69-2.05,4.46h12.93Z"/>
      </g>
    </g>
    <g>
      <g>
        <path class="cls-4" d="M25.2,434.3v-113.36h42.13c12.65,0,23.39,2.2,32.24,6.59,8.84,4.4,15.6,10.8,20.26,19.21,4.66,8.42,6.99,18.68,6.99,30.79s-2.33,22.41-6.99,30.87c-4.66,8.47-11.42,14.9-20.26,19.29-8.84,4.4-19.59,6.59-32.24,6.59H25.2ZM45.78,417.26h20.26c13.18,0,23.02-3.3,29.5-9.89,6.48-6.59,9.73-16.53,9.73-29.83s-3.27-23.21-9.81-29.75c-6.54-6.54-16.35-9.81-29.42-9.81h-20.26v79.27Z"/>
        <path class="cls-4" d="M184.54,435.91c-8.9,0-16.56-1.66-22.99-4.98-6.43-3.32-11.39-8.04-14.87-14.15-3.49-6.11-5.23-13.34-5.23-21.71s1.69-15.28,5.06-21.38c3.38-6.11,8.04-10.91,13.99-14.39,5.95-3.48,12.73-5.23,20.34-5.23s13.93,1.61,19.29,4.82c5.36,3.22,9.51,7.77,12.46,13.67,2.95,5.9,4.42,12.92,4.42,21.06v5.95h-59.33v-11.58h45.18l-2.57,2.41c0-7.29-1.61-12.89-4.82-16.8-3.22-3.91-7.83-5.87-13.83-5.87-4.5,0-8.33,1.04-11.5,3.14-3.16,2.09-5.57,5.04-7.24,8.84-1.66,3.81-2.49,8.34-2.49,13.59v1.12c0,5.9.91,10.77,2.73,14.63,1.82,3.86,4.55,6.75,8.2,8.68,3.64,1.93,8.14,2.89,13.51,2.89,4.39,0,8.79-.67,13.19-2.01,4.39-1.34,8.41-3.46,12.06-6.35l5.63,13.51c-3.75,3.11-8.47,5.57-14.15,7.4-5.68,1.82-11.36,2.73-17.04,2.73Z"/>
        <path class="cls-4" d="M232.94,463.24v-107.57h19.62v16.56h-1.61c1.61-5.47,4.9-9.86,9.89-13.18,4.99-3.32,10.8-4.98,17.45-4.98s12.89,1.66,18.09,4.98c5.2,3.32,9.25,8.01,12.14,14.07,2.89,6.06,4.34,13.32,4.34,21.79s-1.45,15.62-4.34,21.79c-2.89,6.17-6.91,10.91-12.06,14.23-5.15,3.32-11.2,4.98-18.17,4.98-6.54,0-12.28-1.63-17.21-4.9-4.93-3.27-8.25-7.53-9.97-12.78h1.93v45.02h-20.1ZM272.65,420.63c6,0,10.83-2.17,14.47-6.51,3.64-4.34,5.47-10.75,5.47-19.21s-1.82-14.98-5.47-19.21c-3.65-4.23-8.47-6.35-14.47-6.35s-10.83,2.12-14.47,6.35c-3.65,4.24-5.47,10.64-5.47,19.21s1.82,14.87,5.47,19.21c3.64,4.34,8.47,6.51,14.47,6.51Z"/>
        <path class="cls-4" d="M365.27,435.91c-8.15,0-15.22-1.66-21.22-4.98-6-3.32-10.67-8.06-13.99-14.23-3.32-6.16-4.98-13.43-4.98-21.79s1.66-15.6,4.98-21.71c3.32-6.11,7.98-10.83,13.99-14.15,6-3.32,13.08-4.98,21.22-4.98s15.22,1.66,21.22,4.98c6,3.32,10.67,8.04,13.99,14.15,3.32,6.11,4.98,13.35,4.98,21.71s-1.66,15.62-4.98,21.79c-3.32,6.17-7.99,10.91-13.99,14.23-6,3.32-13.08,4.98-21.22,4.98ZM365.27,420.63c6,0,10.83-2.17,14.47-6.51,3.64-4.34,5.47-10.75,5.47-19.21s-1.82-14.98-5.47-19.21c-3.65-4.23-8.47-6.35-14.47-6.35s-10.83,2.12-14.47,6.35c-3.65,4.24-5.47,10.64-5.47,19.21s1.82,14.87,5.47,19.21c3.64,4.34,8.47,6.51,14.47,6.51Z"/>
        <path class="cls-4" d="M422.02,434.3v-78.63h19.62v18.97h-1.61c1.5-6.43,4.45-11.34,8.84-14.71,4.39-3.38,10.24-5.33,17.53-5.87l6.11-.48,1.29,17.04-11.58,1.12c-6.54.64-11.47,2.65-14.79,6.03-3.32,3.38-4.98,8.12-4.98,14.23v42.29h-20.42Z"/>
        <path class="cls-4" d="M521.07,435.91c-10.51,0-18.33-2.62-23.47-7.88-5.15-5.25-7.72-12.92-7.72-22.99v-34.25h-15.11v-15.11h15.11v-23.47h20.1v23.47h23.8v15.11h-23.8v33.12c0,5.14,1.13,9,3.38,11.58,2.25,2.57,5.89,3.86,10.93,3.86,1.5,0,3.05-.19,4.66-.56,1.61-.38,3.27-.78,4.98-1.21l3.05,14.79c-1.93,1.07-4.37,1.93-7.32,2.57-2.95.64-5.82.96-8.6.96Z"/>
        <path class="cls-4" d="M585.54,435.91c-8.9,0-16.56-1.66-22.99-4.98-6.43-3.32-11.39-8.04-14.87-14.15-3.49-6.11-5.23-13.34-5.23-21.71s1.69-15.28,5.06-21.38c3.38-6.11,8.04-10.91,13.99-14.39,5.95-3.48,12.73-5.23,20.34-5.23s13.93,1.61,19.29,4.82c5.36,3.22,9.51,7.77,12.46,13.67,2.95,5.9,4.42,12.92,4.42,21.06v5.95h-59.33v-11.58h45.18l-2.57,2.41c0-7.29-1.61-12.89-4.82-16.8-3.22-3.91-7.83-5.87-13.83-5.87-4.5,0-8.33,1.04-11.5,3.14-3.16,2.09-5.57,5.04-7.24,8.84-1.66,3.81-2.49,8.34-2.49,13.59v1.12c0,5.9.91,10.77,2.73,14.63,1.82,3.86,4.55,6.75,8.2,8.68,3.64,1.93,8.14,2.89,13.51,2.89,4.39,0,8.79-.67,13.19-2.01,4.39-1.34,8.41-3.46,12.06-6.35l5.63,13.51c-3.75,3.11-8.47,5.57-14.15,7.4-5.68,1.82-11.36,2.73-17.04,2.73Z"/>
      </g>
      <g>
        <path class="cls-4" d="M327.39,154.08c.57.62,1.65.92,2.72.45.18.47.57.88,1.06,1.07.24.09.48.13.73.13.58,0,1.17-.24,1.76-.7.72,1.01,2.43,1.27,4.22,1.27,1.04,0,2.09-.08,2.99-.16.51-.04.95-.07,1.27-.09,2.27-.11,3.88-.61,5.12-2.14,1.15.43,4.2,1.15,7.46-3.34.94-.29,5.7-2.05,4.86-7.17.7-.65,2.95-3.04,1.65-6.09.18-.66.7-2.94-.42-4.03-.21-.48-1.26-2.63-3.09-3-1.13-.23-2.29.26-3.46,1.45-.17.17-.68.72-.85,1.22-1.06.61-1.5,1.69-1.63,2.09-.85.43-1.33,1.28-1.55,1.78-1.52-.3-3.24.07-5.13,1.09-1.28-.95-2.75-1.48-4.32-1.48,0,0-.02,0-.03,0-2.05-.04-4.06.9-5.66,2.68-2.07,2.3-3.13,5.66-2.84,8.84-.44,0-.88.12-1.26.38-.67.47-1.1,1.29-1.15,2.2h0s-.01.01-.01.01c-.89-.05-1.68.2-2.25.75-1,1.14-.74,2.22-.21,2.79ZM350.79,137.86c2.2.83,3.05,3.25,3.06,3.28l.81-.28c-.04-.11-.98-2.82-3.56-3.8,0,0-.02,0-.02,0,.23-.48.72-1.25,1.54-1.4.84-.16,2.34.28,4.71,3.28l.67-.53c-1.95-2.47-3.68-3.67-5.16-3.62.23-.44.63-.98,1.32-1.25,1.06-.41,2.47-.02,4.2,1.15l.48-.71c-1.59-1.07-2.98-1.54-4.16-1.42.07-.08.14-.16.21-.22.95-.97,1.85-1.37,2.68-1.21,1.57.31,2.5,2.55,2.51,2.57l.04.1.08.07c.79.68.41,2.65.19,3.36l-.05.16.07.15c1.39,3.02-1.42,5.28-1.54,5.38l-.2.16.05.26c.98,5.05-4.13,6.41-4.35,6.47l-.15.04-.09.13c-2.55,3.59-5.13,3.59-6.42,3.28,2.06-3.31,2.15-8.15.17-12-.56-1.09-1.25-2-2.04-2.74,1.89-.96,3.56-1.18,4.97-.64ZM328.22,151.89c.5-.48,1.2-.51,1.54-.49.36.06.59-.07.71-.18.12-.11.27-.32.25-.63.03-.64.33-1.23.78-1.54.45-.32,1.07-.32,1.46,0l.79.63-.1-1c-.03-.27.06-.49.25-.67.33-.3.95-.44,1.51-.34.35.04,1.52.22,1.77,1.06l.31,1.02.48-.95c.52-1.03,1.57-1.37,2.33-1.25.78.12,1.3.68,1.44,1.52l.84-.14c-.2-1.22-1.01-2.05-2.16-2.23-.21-.03-.42-.03-.63-.02.24-1.31,1.1-4.52,3.69-5.22.48.53.88,1.18,1.19,1.95,1.22,3.01.73,6.97-1.13,9.23l.66.55c2.08-2.52,2.61-6.77,1.26-10.09-.94-2.33-2.63-3.74-4.76-3.97-1.69-.17-3.38.58-4.73,2.12-1.25,1.42-2.08,3.35-2.34,5.45,0,.06-.02.29-.04.47-.11.06-.21.13-.3.22-.09.08-.16.17-.23.27-.2-2.88.78-5.87,2.64-7.94,1.43-1.59,3.21-2.44,5.01-2.4h.02c2.6,0,4.9,1.58,6.33,4.35,1.89,3.66,1.77,8.25-.24,11.31-.75,1.51-3.29,2.24-4.73,2.25-.34,0-.8.05-1.32.09-2.05.16-5.84.49-6.55-.82l-.14-.22-.23-.64c-.6.72-1.51,1.51-2.42,1.19-.33-.13-.65-.5-.61-.9l.09-.95-.77.56c-.84.61-1.74.46-2.16,0-.39-.42-.3-1.04.2-1.62ZM334.52,146.81c.24-1.94.98-3.72,2.13-5.03,1.17-1.33,2.59-1.98,4-1.84.78.09,1.49.38,2.12.83-2.94,1.17-3.7,5.01-3.85,6.08-.49.19-.93.5-1.28.91-.44-.53-1.18-.87-2.09-.97-.3-.06-.67-.05-1.03,0Z"/>
        <path class="cls-4" d="M276.69,143.4c-.84,5.13,3.93,6.88,4.86,7.17,2.13,2.94,4.36,3.62,5.98,3.62,1.03,0,1.81-.28,2.14-.43.8.23,1.58.35,2.35.35.97,0,1.91-.18,2.81-.54.23.25.66.47,1.47.44.81-.02,1.79-.05,2.65-.45.3.32.83.49,1.53.48,1.42-.03,2.78-.11,3.86-.84.23.18.58.28,1.02.3,2.08.1,4.22.2,6.3-.08.49-.02.85-.26.96-.65.12-.4-.08-.84-.5-1.14-.08-.06-.17-.11-.26-.16-.15-.09-.29-.17-.35-.26-.02-.03-.03-.06-.05-.1-.05-.1-.11-.23-.22-.34l-.14-.09c-.64-.27-1.48-.35-2.31-.43-.37-.03-.72-.07-1.03-.12-.24-.83-1.15-1.36-2.08-1.42-.09,0-.21-.01-.24-.04-.03-.02-.08-.1-.12-.16-.03-.05-.06-.09-.1-.14-.33-.42-.77-.62-1.22-.71.25-3.13-.79-6.31-2.84-8.57-1.57-1.73-3.52-2.67-5.51-2.67-.05,0-.11,0-.16,0-1.58,0-3.06.53-4.33,1.48-1.89-1.02-3.61-1.38-5.13-1.09-.22-.5-.7-1.34-1.55-1.78-.13-.4-.57-1.48-1.63-2.09-.17-.51-.68-1.05-.85-1.22-1.17-1.19-2.33-1.67-3.46-1.45-1.83.37-2.88,2.51-3.09,3-1.12,1.09-.6,3.36-.42,4.03-1.3,3.05.95,5.44,1.65,6.09ZM304.56,148.9l.07.1c.09.13.19.29.38.4.22.14.46.16.72.17.59.04,1.24.43,1.26.95l.02.33.33.07c.43.09.92.13,1.41.18.7.07,1.43.14,1.94.32,0,.02.02.04.03.06.03.06.06.13.1.19.17.27.44.43.65.55.07.04.14.08.2.12.14.1.17.18.17.18h0s-.07.04-.22.05c-2.04.27-4.15.17-6.19.08-.42-.02-.56-.12-.57-.16l-.19-.64-.5.44c-.9.79-2.25.88-3.67.9-.41.01-.88-.08-.92-.29l-.12-.63-.54.35c-.69.45-1.56.51-2.62.54-.49.02-.82-.08-.87-.24l-.13-.48-.46.21c-.5.23-1.07.38-1.66.47-2.06-2.09-2.84-5.98-1.79-9.19.23-.71.66-1.68,1.4-2.49,2.7.73,3.54,4.38,3.75,5.62l-.59.02.04.85,4.02-.17c.39-.02.72-.02.89.1.39.36.79.54,1.18.54.23.02.48.02.73.02.72,0,1.41,0,1.78.47ZM293.51,140.78c.57-.42,1.26-.74,2.13-.84,1.17-.16,2.42.34,3.53,1.38,1.62,1.52,2.6,3.89,2.59,6.14-.11-.06-.22-.14-.35-.26-.47-.33-1.07-.31-1.46-.29l-2.56.11c-.19-1.22-.99-5.07-3.87-6.24ZM295.52,137.29s.02,0,.02,0c1.81-.02,3.57.81,5,2.39,1.86,2.05,2.84,5.05,2.62,7.91-.13,0-.26,0-.38,0-.06,0-.11,0-.17,0,.04-2.52-1.04-5.17-2.85-6.87-1.3-1.22-2.8-1.79-4.22-1.6-2.3.27-4.12,1.93-4.98,4.56-.94,2.88-.66,6.91,1.53,9.57-.91.03-1.85-.08-2.7-.32-1.99-3.06-2.09-7.63-.21-11.28,1.43-2.76,3.73-4.35,6.34-4.35ZM275.9,137.22c-.22-.7-.6-2.67.19-3.36l.08-.07.04-.1s.94-2.26,2.51-2.57c.83-.16,1.73.24,2.69,1.21.07.07.14.14.2.22-1.18-.12-2.57.35-4.16,1.43l.48.71c1.73-1.17,3.14-1.56,4.2-1.15.68.26,1.09.81,1.32,1.25-1.48-.05-3.22,1.15-5.16,3.62l.67.53c2.37-3,3.87-3.44,4.71-3.28.82.15,1.3.92,1.54,1.4,0,0-.02,0-.02,0-2.57.98-3.52,3.68-3.56,3.8l.81.28s.85-2.43,3.05-3.27c1.41-.54,3.08-.31,4.97.64-.78.74-1.48,1.65-2.04,2.74-1.98,3.85-1.9,8.68.16,11.99-1.3.29-3.89.29-6.42-3.27l-.09-.13-.15-.04c-.22-.06-5.33-1.41-4.35-6.47l.05-.26-.2-.16c-.12-.09-2.93-2.36-1.54-5.38l.07-.15-.05-.16Z"/>
        <path class="cls-4" d="M317.73,150.47c-.04,1.43-.19,2.95-.45,4.54l-.03.18.11.15s.93,1.23,2.51,1.79l.5.18.07-.52c.02-.17.53-4.04.07-8.23,5.25-1.61,6.88-6.89,7.34-9.13.27-1.32.2-1.38.01-1.52l-.19-.15-.23.09c-4.45,1.71-6.53,4.99-7.5,7.49-.34-1.35-.82-2.51-1.41-3.48,4.31-.45,7.68-4.09,7.68-8.5,0-2.49-1.08-4.72-2.79-6.29l2.12-2.6-4.01.47-1.21-2.05-2.05,1.27-1.62-1.32-.83,1.66-3.62-1.41.97,2.94c-2.78,1.61-4.09,4.57-4.09,7.33,0,3.53,2.14,7.38,6.78,8.33.19.25,1.17,1.69,1.63,4.7-1.5-2.3-4.2-5.01-8.79-5.78l-.36-.06-.12.34c-.13.36.9,2.75,2,4.41,1.41,2.15,3.85,4.75,7.5,5.17ZM320.27,147.11c.57-2.21,2.21-6.13,6.8-8.19-.34,1.93-1.76,7.36-6.97,8.86l.17-.67ZM323.54,125.56l-.78.96c-.37-.27-.75-.52-1.16-.73l1.94-.23ZM325.36,133.36c0,3.45-2.29,6.38-5.43,7.35,5.04-6.8,1.49-12.57-.31-14.77,3.3.88,5.74,3.87,5.74,7.42ZM320.03,124.08l.8,1.36c-.67-.27-1.38-.46-2.12-.55l1.32-.82ZM316.95,124.18l.79.64s-.08,0-.12,0c-.35.01-.7.04-1.03.09l.36-.73ZM315.23,125.18c-.45.12-.88.27-1.28.45l-.36-1.09,1.64.64ZM309.94,133.36c0-3.15,1.89-6.58,5.98-7.47-1.8,2.16-5.47,7.96-.42,14.84-3.8-1.03-5.56-4.33-5.56-7.36ZM317.25,125.7c.13,0,.25-.03.38-.03.21,0,.42.01.63.03.87.84,7.03,7.28.35,15.28-.32.04-.64.07-.97.07-.29-.01-.58-.04-.85-.07-6.62-8.02-.42-14.44.45-15.28ZM316.98,141.85c.19.02.37.04.56.05.9,1.28,1.54,3.01,1.89,5.18l.13.85.05.37c.4,3.3.16,6.54.03,7.81-.76-.38-1.28-.9-1.49-1.15.27-1.71.42-3.35.44-4.87v-.4s-.03-1.35-.03-1.35v-.03c-.19-3.4-1.03-5.45-1.58-6.46ZM317.74,148.57l.51,1.09h-.05c-5.49-.39-8.16-6.11-8.91-8.07,5.03,1.14,7.45,4.82,8.46,6.98Z"/>
        <path class="cls-4" d="M288.59,69.4c-.36-.43-.38-1.16-.13-1.65.07-.15.17-.28.28-.4.02-.02.04-.04.07-.05-.5.22-1.21,0-1.45-.52-.29-.63.11-1.45.77-1.69-.54.09-1.02.38-1.54.57-.52.18-1.15.24-1.57-.11-.42-.34-.48-.97-.29-1.48.19-.5.57-.9.94-1.29-.85.2-1.61,1.02-2.43.75-.84-.27-.92-1.47-.48-2.22.44-.75,1.21-1.26,1.7-1.98-1.28.6-2.62,1.07-4,1.39-.48.11-1.05.19-1.43-.13-.27-.23-.24-.7-.03-.92l-1.94.64c-.45.15-.93.3-1.39.16-.45-.13-.8-.69-.55-1.08-.69.42-1.44.85-2.24.76-.48-.05-.83-.27-1.08-.7-.28-.5-.07-.73.36-1.07-.77.3-1.54,1.25-1.29,2.13.18.63.93.97,1.59.91.66-.06,1.26-.41,1.82-.76-.24.15.46.91.56.99.45.34,1.15.44,1.7.32.33-.07.64-.2.93-.35.1-.05.88-.41.87-.51.01.42.59.54,1.02.53.86-.02,1.72-.05,2.58-.07-.61.55-.78,1.52-.38,2.23.4.71,1.32,1.1,2.11.88-.66.73-.13,2.05.82,2.34.81.25,1.7-.14,2.26-.78-.08.1-.14.22-.2.33-.06.12-.12.24-.16.36-.09.25-.14.53-.1.8.04.23.14.47.27.66.12.18.29.34.5.42.1.04.21.06.32.07.27,0,.49-.11.69-.27-.15.24-.3.49-.42.74-.12.26-.23.53-.27.81-.09.67.48,1.23,1.11,1.32.36.05.73,0,1.05-.19.72-.42,1.12-1.21,1.45-1.96-.55.73-1.81.76-2.4.07Z"/>
        <path class="cls-4" d="M256.35,60.56c.54-.14,1-.46,1.48-.74.13-.07.29-.15.41-.06.12.08.12.24.13.38.06.65.72,1.12,1.38,1.17.66.05,1.29-.24,1.84-.6-.02.12-.04.24-.05.36.27.42.8.63,1.3.64.51.01,1-.13,1.48-.28.61-.18,1.28-.41,1.62-.95-.31.31-.69.64-1.13.58-.49-.07-.77-.64-.7-1.12.07-.48.4-.89.71-1.26-.84.51-1.75.91-2.7,1.17-.39.11-.81.2-1.2.1-.39-.1-.75-.46-.71-.86.02-.22.15-.42.31-.59.23-.26.52-.47.84-.63-.77.31-1.55.63-2.33.94-.58.23-1.18.47-1.8.43-.62-.04-1.27-.45-1.35-1.06-.03-.24.03-.48.13-.71-.1.07-.21.13-.3.2-.4.3-.78.65-.98,1.1-.21.45-.21,1.02.1,1.4.35.42.99.51,1.53.37Z"/>
        <path class="cls-4" d="M295.4,46.96s-.17.07-.21.09c-.07.03-.13.05-.2.08-.28.1-.58.18-.88.17-.47-.01-.97-.3-1.07-.76-.06-.3.04-.65-.14-.9-.18-.25-.55-.26-.85-.2-.71.14-2.16,1.17-2.72.28-.09-.14-.09-.32-.06-.48.02-.11.06-.23.11-.33-.62.53-1.25.72-1.94,1.08-.69.36-1.4.69-2.12,1-.43.18-1.02.29-1.36-.12-.4-.5.03-1.33.38-1.75.38-.45.39-.46.88-.77-1.87.74-3.47,1.13-5.47,1.83-2,.7-3.98,1.58-5.52,3.03-.24.23-.48.49-.55.81-.07.32.1.72.42.79-2.23.7-4.19,2.22-5.44,4.19-.26.41-.46,1.01-.1,1.33.17.15.42.17.65.17.65-.02,1.3-.23,1.83-.61-.36-.26-.43-.78-.29-1.2.14-.42.46-.75.78-1.05,1.28-1.19,2.78-2.14,4.4-2.79-.25.11-.53-.15-.54-.42-.01-.27.16-.51.33-.72.15-.19.32-.37.49-.54.75-.75,1.64-1.33,2.58-1.81,1-.5,2.06-.89,3.12-1.23.15-.05.29-.09.44-.14.05-.02.41-.09.42-.13-.32,1.01-.39,2.48,1.05,2.48,1.48,0,2.94-.66,3.91-1.78-.31.45-.58,1.08-.25,1.52.3.41.91.39,1.4.27,1.15-.27,2.24-.84,3.12-1.63-.36.47-.7,1.18-.28,1.59.05.05.11.09.17.12.24.12.55.1.83.05.4-.07.79-.2,1.15-.37.48-.22.93-.53,1.32-.89.04-.03.27-.24.19-.26Z"/>
        <path class="cls-4" d="M265.41,70.59c-1.74.87-3.61,1.5-5.53,1.85-.57.11-1.38.04-1.47-.53-.04-.25.1-.5.24-.71.65-.97,1.54-1.79,2.57-2.35-1.68.81-3.48,1.37-5.32,1.65-.74.11-1.78-.05-1.81-.79-.01-.31.18-.58.38-.82.72-.87,1.58-1.62,2.54-2.22-1.53,1.01-3.22,1.79-4.99,2.31-.72.21-1.57.37-2.18-.07-.42-.3-.48-.97-.23-1.36-1.05.6-2.27.91-3.49.85-.22-.01-.46-.04-.63-.19-.57-.51.09-1.49.58-2.02-.7.72-1.41,1.4-1.93,2.28-.27.46-.44,1.16.01,1.45.17.11.39.12.6.12.41,0,.84-.05,1.27-.13.26-.05.52-.11.76-.17.3-.08.59-.18.87-.3.14-.06.73-.24.79-.38-.4,1.01.71,2.1,1.81,2.14,1.1.04,2.1-.6,3.01-1.22-.37.5,0,1.27.56,1.54.57.27,1.24.19,1.85.06,1.08-.22,2.14-.55,3.16-.98-.39.98-1.84,1.74-1.35,2.68.2.39.68.55,1.11.63,1.72.32,3.55-.07,4.98-1.05.32-.22.65-.47,1.03-.45.3.02.56.21.84.33.58.25,1.29.2,1.82-.14-1.06.08-2.04-.98-1.86-2.01Z"/>
        <path class="cls-4" d="M242.49,77.61c-.06-.25-.02-.53.1-.76.04-.08.12-.14.14-.23-.1,0-.2.11-.28.16-.1.07-.2.13-.3.19-.2.12-.42.22-.64.31-.44.18-.9.3-1.37.35-.32.04-.64.04-.96.02-.16-.01-.32-.03-.48-.06-.13-.02-.28-.03-.37-.14-.11-.13-.17-.29-.19-.46-.02-.16-.01-.36.03-.51.01-.05.03-.09.05-.14.06-.14.11-.29.21-.4.1-.12.19-.25.32-.35-1.01.66-2.15,1.15-3.34,1.39-.18.04-.39.07-.55-.03-.35-.21-.18-.73.04-1.07.98-1.54,2.2-2.87,3.55-4.1-1.44.94-2.76,2.09-3.93,3.35-.48.52-.97,1.21-.74,1.88.2.59.9.89,1.52.85.63-.04,1.2-.36,1.75-.66.14-.08.29-.16.43-.24.13-.07.27-.11.4-.19-.15.44-.23.9-.21,1.37.01.2.06.41.17.58.1.16.28.31.47.34.22.03.46,0,.67-.06.31-.07.62-.17.92-.28.46-.17.9-.4,1.32-.66.32-.2.58-.42.86-.67.05-.04.11-.13.18-.14,0,.07-.02.17-.05.25-.03.1-.07.2-.08.31-.03.21-.02.43.06.63.09.25.27.46.5.59.11.06.21.06.33.07.13.01.25.03.38.02.46-.05.87-.29,1.24-.56,1.11-.79,2.01-1.87,2.58-3.09-1.23.88-2.56,1.61-3.96,2.18-.16.07-.72.23-.79-.03Z"/>
        <path class="cls-4" d="M363.32,58.38c.42.35.64.58.36,1.07-.25.43-.6.65-1.08.7-.8.09-1.56-.34-2.24-.76.25.39-.09.94-.55,1.08-.45.13-.94-.01-1.39-.16l-1.94-.64c.21.22.24.69-.03.92-.38.32-.94.24-1.43.13-1.38-.32-2.72-.79-4-1.39.49.72,1.26,1.23,1.7,1.98.44.75.36,1.95-.48,2.22-.83.27-1.59-.55-2.43-.75.37.39.76.79.94,1.29.19.5.12,1.13-.29,1.48-.42.35-1.05.29-1.57.11-.51-.18-1-.48-1.54-.57.66.25,1.06,1.06.77,1.69-.24.52-.95.74-1.45.52.02.02.05.03.07.05.12.12.21.25.28.4.24.49.23,1.23-.13,1.65-.59.7-1.85.66-2.4-.07.33.76.73,1.55,1.45,1.96.31.18.69.24,1.05.19.62-.09,1.19-.65,1.11-1.32-.04-.28-.15-.55-.27-.81-.12-.26-.27-.5-.42-.74.2.16.42.27.69.27.11,0,.22-.02.32-.07.21-.08.37-.24.5-.42.13-.19.23-.43.27-.66.04-.27,0-.55-.1-.8-.04-.12-.1-.24-.16-.36-.06-.11-.12-.24-.2-.33.56.64,1.45,1.03,2.26.78.95-.29,1.48-1.6.82-2.34.79.21,1.71-.17,2.11-.88.4-.71.23-1.68-.38-2.23.86.02,1.72.05,2.58.07.43.01,1.01-.11,1.02-.53,0,.1.77.46.87.51.3.15.61.28.93.35.54.12,1.24.02,1.7-.32.1-.08.8-.84.56-.99.57.34,1.16.7,1.82.76.66.06,1.41-.28,1.59-.91.25-.88-.52-1.83-1.29-2.13Z"/>
        <path class="cls-4" d="M370.69,61.07c-.44.06-.82-.27-1.13-.58.34.54,1,.76,1.62.95.48.15.98.29,1.48.28.5-.02,1.03-.22,1.3-.64-.02-.12-.03-.24-.05-.36.55.36,1.19.65,1.84.6.66-.05,1.31-.52,1.38-1.17.01-.14.01-.3.13-.38.12-.08.29,0,.41.06.48.28.94.6,1.48.74.54.14,1.18.05,1.53-.37.32-.38.31-.95.1-1.4-.21-.45-.59-.8-.98-1.1-.1-.07-.2-.13-.3-.2.11.23.17.46.13.71-.08.61-.73,1.02-1.35,1.06-.62.04-1.23-.2-1.8-.43-.78-.31-1.55-.63-2.33-.94.32.15.61.37.84.63.15.17.29.37.31.59.04.4-.32.75-.71.86-.39.1-.81.01-1.2-.1-.95-.27-1.86-.66-2.7-1.17.32.37.64.78.71,1.26.07.48-.21,1.05-.7,1.12Z"/>
        <path class="cls-4" d="M340.29,47.22c.39.37.83.67,1.32.89.37.17.76.3,1.15.37.27.05.58.07.83-.05.06-.03.12-.07.17-.12.42-.42.07-1.12-.28-1.59.88.79,1.97,1.36,3.12,1.63.49.12,1.1.14,1.4-.27.32-.44.06-1.06-.25-1.52.97,1.11,2.43,1.78,3.91,1.78,1.43,0,1.37-1.47,1.05-2.48.01.04.37.12.42.13.15.05.3.09.44.14,1.06.34,2.12.73,3.12,1.23.94.47,1.84,1.06,2.58,1.81.17.17.34.35.49.54.17.21.34.45.33.72-.01.27-.29.53-.54.42,1.62.65,3.12,1.6,4.4,2.79.32.3.64.63.78,1.05.14.42.07.94-.29,1.2.53.38,1.18.59,1.83.61.23,0,.48-.02.65-.17.37-.32.16-.92-.1-1.33-1.25-1.98-3.21-3.49-5.44-4.19.33-.07.49-.46.42-.79-.07-.32-.31-.58-.55-.81-1.54-1.45-3.52-2.33-5.52-3.03-2-.7-4.05-1.24-5.96-2.14.5.32,1,.64,1.38,1.09.35.41.79,1.25.38,1.75-.33.42-.93.31-1.36.12-.72-.31-1.43-.63-2.12-1-.7-.36-1.33-.55-1.94-1.08.05.11.09.22.11.33.03.16.03.34-.06.48-.55.89-2.01-.14-2.72-.28-.3-.06-.67-.05-.85.2-.18.25-.08.6-.14.9-.1.46-.6.74-1.07.76-.3,0-.6-.07-.88-.17-.07-.03-.14-.05-.2-.08-.04-.02-.17-.1-.21-.09-.08.03.15.23.19.26Z"/>
        <path class="cls-4" d="M370.04,72.74c.28-.12.54-.31.84-.33.38-.02.72.23,1.03.45,1.43.98,3.27,1.37,4.98,1.05.44-.08.91-.24,1.11-.63.49-.94-.96-1.7-1.35-2.68,1.02.43,2.07.76,3.16.98.62.13,1.29.21,1.85-.06.57-.27.93-1.03.56-1.54.91.62,1.9,1.26,3.01,1.22,1.1-.04,2.21-1.12,1.81-2.14.06.14.65.32.79.38.29.12.58.22.87.3.24.07.5.13.76.17.42.08.86.12,1.27.13.2,0,.42,0,.6-.12.46-.29.28-.99.01-1.45-.52-.88-1.23-1.56-1.93-2.28.48.53,1.15,1.51.58,2.02-.17.15-.4.18-.63.19-1.21.06-2.43-.25-3.49-.85.25.39.19,1.06-.23,1.36-.61.44-1.46.28-2.18.07-1.77-.52-3.45-1.31-4.99-2.31.96.6,1.82,1.35,2.54,2.22.2.24.39.52.38.82-.03.74-1.07.9-1.81.79-1.85-.28-3.65-.84-5.32-1.65,1.03.57,1.92,1.38,2.57,2.35.14.21.28.46.24.71-.09.57-.89.64-1.47.53-1.92-.35-3.79-.98-5.53-1.85.18,1.03-.81,2.09-1.86,2.01.53.34,1.24.39,1.82.14Z"/>
        <path class="cls-4" d="M390.84,78.55c.37.27.78.51,1.24.56.13.01.25,0,.38-.02.12-.01.22,0,.33-.07.23-.13.41-.34.5-.59.07-.2.09-.42.06-.63-.02-.11-.05-.21-.08-.31-.02-.07-.05-.17-.05-.25.07,0,.13.09.18.14.27.25.54.48.86.67.42.26.86.48,1.32.66.3.11.61.21.92.28.22.05.45.09.67.06.19-.02.37-.18.47-.34.11-.17.16-.38.17-.58.03-.47-.06-.93-.21-1.37.13.08.27.12.4.19.14.08.29.16.43.24.55.3,1.12.61,1.75.66.63.04,1.33-.26,1.52-.85.23-.67-.26-1.36-.74-1.88-1.16-1.26-2.48-2.41-3.93-3.35,1.35,1.22,2.57,2.56,3.55,4.1.22.34.38.86.04,1.07-.16.1-.37.07-.55.03-1.19-.24-2.32-.73-3.34-1.39.13.1.22.22.32.35.1.12.15.26.21.4.02.05.04.09.05.14.05.15.05.36.03.51-.02.17-.08.33-.19.46-.09.11-.23.11-.37.14-.16.03-.32.05-.48.06-.32.03-.64.02-.96-.02-.47-.05-.93-.17-1.37-.35-.22-.09-.43-.19-.64-.31-.1-.06-.2-.12-.3-.19-.08-.06-.18-.16-.28-.16.03.08.1.15.14.23.12.23.16.51.1.76-.06.26-.63.09-.79.03-1.4-.57-2.73-1.31-3.96-2.18.57,1.23,1.47,2.3,2.58,3.09Z"/>
        <path class="cls-4" d="M314.92,105.81c-3.37-.47-4.42-4-4.42-4l-.83,1.33c2.25,3.2,5.25,2.67,5.25,2.67Z"/>
        <path class="cls-4" d="M308.1,52.34c-.58,0-1.05.47-1.05,1.05s.47,1.05,1.05,1.05,1.05-.47,1.05-1.05-.47-1.05-1.05-1.05ZM308.1,53.85c-.25,0-.46-.21-.46-.46s.21-.46.46-.46.46.21.46.46-.21.46-.46.46Z"/>
        <path class="cls-4" d="M429.27,116.81c-.34-.52-.93-.8-1.54-.76l-14.1,3.06-1.52,7.57-3.69,2.42c-.05-6.51-.35-13.33-.89-20.36l7.47,1.62,8.32-11.52c.41-.57.43-1.31.04-1.89-.34-.52-.92-.8-1.54-.76l-14.1,3.06-1.52,7.57-33.75,22.09c-.15-2.9-.34-5.84-.63-8.86-.01-.11-.02-.19-.02-.26.82.11,1.6.16,2.33.16,1.87,0,3.48-.37,4.87-1.27,4.69-3.02,6.15-12.1,6.39-13.89l.03-.21-.47-.29c-.88-.6-3.01-2.29-3.62-4.71.75.08,1.5.25,2.23.52.64.23,1.32.56,2.05.91,1.93.92,4.21,2.02,6.97,2.02.91,0,1.87-.12,2.89-.4,4.42-1.48,6.2-3.7,6.27-3.8l.49-.62-5.51-.49,1.73-5.13-1.09.8s-2.61,1.92-3.82,2.36l-.23.07c-1.05.34-2.23.72-5.62-.65-2.08-.85-3.87-1.18-5.44-.99-1.97.24-3.35,1.45-4.57,2.52-1.2,1.05-2.69,2.35-3.15,4l-.04.21c-.07.27-.12.54-.15.81l-.02.12h0c-.05.51-.05,1.04.01,1.55.1.76.32,1.5.61,2.2.23.55.52,1.08.84,1.58,0,0,0,0,0,.01-3.42.02-8.08-.63-14.39-2.61h0s0,0,0,0c-4.57-1.42-9.09-2.14-13.44-2.14h0c-6.2,0-11.43,1.42-15.67,3.33,0-.14-.03-.27-.08-.4-.12-.34-.32-.64-.51-.94-.51-.81-.99-1.66-1.13-2.62-.15-1.08.05-2.17.22-3.23.23-1.54.14-2.96-.27-4.34-.25-.85-.62-1.54-1.19-2.16-.23-.25-.44-.51-.66-.79-.09-.12-.19-.24-.28-.35.53-.85.8-1.69.81-2.59,0-.08.09-.22.17-.33l.08-.12c.07-.12.16-.23.24-.34.14-.18.27-.36.38-.57.29-.51.42-1.1.36-1.74l-.02-.97c.17-.09.31-.2.43-.31.48,1.06,1.36,1.7,2.46,1.74,1.08.03,2.29-.55,3.15-1.42.19.27.46.52.84.66.93.35,1.81-.24,2.1-.44.78-.53,1.58-1.12,2.17-1.94.33.11.62.11.85.07,1.08-.17,1.69-1.25,2.08-2.07l.07-.17c.17-.41.21-.45.33-.51.82-.39,1.18-1.15,1.4-1.83.11-.02.22-.05.32-.09.37-.16.57-.14.86.12.48.41,1.13.41,1.66.16.45.44,1.02.64,1.63.55.39-.06.77-.25,1.09-.52.15.12.32.22.52.29.35.13.57.41.93.9l.14.18c.81,1.06,1.65,1.27,2.21,1.27.45,0,1.08-.16,1.73-.77.9.6,1.65.59,2.14.47.52-.13,1.26-.53,1.78-1.68.43-.96.69-1.87.76-2.74.5-.03.98-.26,1.34-.65.13.1.26.21.34.29.18.16.35.3.48.38.98.67,2.01,1.27,3.08,1.78.34.17.75.35,1.23.4.43.04.76-.03,1.02-.12.12.08.28.19.48.34,2.94,2.08,4.78,3.06,6.06,2.3.16-.1.37-.26.53-.51,1.73,1.22,3.53,2.42,5.61,3.16.44.15.89.17,1.32.03.34-.11.59-.28.78-.48.46.32.92.65,1.39.99,1.57,1.13,3.19,2.3,5.03,3.01,1.09.51,1.82.29,2.25.02.58-.36.85-.95.98-1.58.99.85,2.01,1.72,3.62,2.18l.09.02c.84.17,1.4-.07,1.78-.39,1.19.94,2.43,1.91,3.89,2.59.7.33,1.5.25,2.09-.21.3-.24.48-.5.58-.76,1.16.54,2.26,1.07,3.26,1.81.47.34,1.72,1.23,3.03.42.27-.18.55-.46.7-.88.63.52,1.28,1.03,1.95,1.47.59.44,2.41,1.68,3.7.97.28-.15.68-.48.83-1.17.39.25.79.5,1.25.77.66.36,1.29.79,1.97,1.25,1.4.95,2.85,1.94,4.61,2.33l.11.02c.09.01.19.02.28.02.41,0,.76-.12,1.04-.36.41-.35.58-.85.52-1.5-.24-2.47-1.83-4.23-3.26-5.82-3.71-4.1-8.07-7.76-12.3-11.3-1.59-1.34-3.24-2.72-4.81-4.08-10.72-9.36-21.84-17.87-33.98-25.99-10.65-7.13-21.44-11.01-32.08-11.53-4.59-.22-8.2.36-11.04,1.78-6.56,3.43-4.45,10.52-2.91,15.69l.13.44c.92,2.8,1.03,4.79.33,5.91-.28.45-.72.76-1.29.99-.03-.03-.04-.05-.04-.05l-.15-.14c-2.7-3.11-7-2.9-8.26-2.76-.5-.32-.98-.66-1.22-.88.14-1.96-.29-3.76-1.24-5.22-.32-.48-.69-.93-1.11-1.32-.02-.01-.03-.03-.04-.04,0-.03,0-.06,0-.09-.06-.72-.36-1.37-.86-1.84-.61-.58-1.45-.89-2.39-.86-.83.02-1.59.28-2.15.51l-.17.07c-.48.2-.98.4-1.3.31-.07-.02-.16-.07-.25-.11.61-3.35.02-6.44-1.72-8.49-3.14-3.69-9.16-4.16-13.65-3.9-10.64.52-21.43,4.4-32.08,11.53-12.14,8.13-23.26,16.63-33.98,25.99-1.57,1.37-3.21,2.75-4.81,4.08-4.22,3.54-8.59,7.2-12.33,11.33-1.4,1.55-2.99,3.31-3.23,5.77-.11,1.02.47,1.49.72,1.65.26.16.56.23.91.23.84,0,1.95-.45,3.31-1.35.78-.53,1.57-1,2.33-1.46.64-.39,1.29-.78,1.94-1.2.26-.17.62-.12.78.15.21.37.51.58.72.68,1.15.56,2.7-.22,5.07-2.09.23-.18.57-.16.75.07.14.18.31.32.48.44,1.27.78,2.52-.11,3-.46.86-.64,1.81-1.13,2.81-1.6.23-.11.5-.02.65.19.09.13.21.25.36.37.59.47,1.39.55,2.08.22,1.32-.6,2.44-1.47,3.52-2.31.12-.1.25-.19.37-.29.39.33.95.55,1.78.4l.11-.03c1.28-.37,2.2-1,3.02-1.67.27-.22.68-.14.82.18.16.35.4.66.76.88.43.27,1.17.48,2.18,0,1.91-.74,3.53-1.91,5.1-3.04.47-.34.93-.67,1.39-.99.19.2.44.37.78.48.42.13.88.12,1.32-.03,1.93-.68,3.61-1.76,5.22-2.89.21-.15.48-.12.68.05.21.19.47.32.75.38,1.25.29,2.97-.68,5.49-2.46.22-.15.4-.28.53-.37.23.08.57.17,1.02.12l.17-.03c1.33-.35,2.46-1.07,3.54-1.77l.59-.38c.13-.09.29-.22.48-.38.08-.07.21-.18.34-.29.28.3.64.51,1.02.6.21.05.35.24.38.45.21,1.52.86,3.33,2.2,3.9.43.19,1.2.35,2.13-.15.19-.1.41-.08.58.05.54.41,1.06.52,1.44.53.58.01,1.4-.21,2.21-1.27l.14-.19c.37-.5.58-.76.93-.9.2-.08.37-.18.52-.29.32.28.69.46,1.08.52.61.09,1.19-.11,1.63-.55.52.25,1.18.26,1.67-.16.29-.25.5-.28.86-.12.1.05.21.08.32.09.22.66.58,1.44,1.4,1.83.12.06.16.1.33.51l.08.19c.37.8.98,1.87,2.07,2.05.27.04.63.03,1.02-.14,0,.02,0,.04,0,.07l.13.6.52-.33c.82-.52,1.57-1.44,2.13-2.57.26,1.29.77,2.48,1.47,3.52-2.31,1.92-3.52,5.07-3,7.87l.11.6.53-.31c.86-.51,1.66-1.43,2.26-2.59.25,1.63.88,3.15,1.82,4.4-2.3,2.41-2.83,5.26-2.07,7.93l.17.59.49-.36c.78-.57,1.47-1.52,1.96-2.67.14.8.36,1.57.67,2.28.66,1.51.54,1.88,1.8,2.84-.23.33-.43.7-.62,1.07-4.1-1.73-9.05-2.98-14.86-2.98h0c-4.35,0-8.87.72-13.44,2.14h0s0,0,0,0c-6.31,1.98-10.97,2.63-14.39,2.61,0,0,0,0,0-.01.33-.5.61-1.03.84-1.58.3-.7.52-1.44.61-2.2.07-.52.07-1.04.01-1.56h0s-.02-.11-.02-.11c-.03-.27-.08-.55-.15-.81l-.04-.21c-.46-1.65-1.96-2.95-3.15-4-1.22-1.07-2.6-2.28-4.57-2.52-1.57-.19-3.35.13-5.44.99-3.39,1.37-4.58.98-5.62.65l-.23-.07c-1.21-.44-3.8-2.34-3.82-2.36l-1.09-.8,1.73,5.13-5.51.49.49.62c.07.09,1.85,2.31,6.27,3.8,1.02.28,1.98.4,2.89.4,2.76,0,5.04-1.09,6.97-2.02.73-.35,1.41-.68,2.05-.91.73-.27,1.48-.44,2.23-.52-.6,2.42-2.74,4.11-3.62,4.71l-.47.29.03.21c.24,1.79,1.7,10.88,6.39,13.89,1.38.9,3,1.27,4.87,1.27.71,0,1.45-.05,2.23-.15-.29,3.05-.51,6.08-.66,9.07l-33.7-22.06-1.52-7.57s-14.1-3.06-14.1-3.05c-.61-.05-1.2.23-1.54.75-.38.58-.37,1.33.04,1.89l8.32,11.52,7.47-1.62c-.54,7.03-.84,13.85-.89,20.36l-3.69-2.42-1.52-7.57s-14.1-3.06-14.1-3.05c-.6-.05-1.2.23-1.54.75-.38.58-.36,1.33.04,1.89l8.32,11.52,7.24-1.57c-5.16,38.87.64,65.29,6.44,80.64,5.96,15.78,12.99,23.28,14.12,24.42,1.91,2.21,14.39,15.78,33.71,15.78,8.36,0,17.98-2.57,28.53-9.71-3.3,10.82-11.78,23.56-11.87,23.7l-.46.69.83-.03c3.83-.12,6.87.2,9.18.65l-1.42,5.84c-.19.54-.15.96-.15.96-.02.3.09.95.65,1.47.88.81,2.5,1.02,4.81.63,1.05-.18,1.86-.19,2.5-.13l.22,6.17c-.02.11-.01.23.01.36.03.14.08.29.18.45.76,1.16,3.52,1.74,8.21,1.74s7.45-.59,8.2-1.74c.19-.3.22-.6.18-.82l.22-6.16c.64-.07,1.45-.05,2.5.13,2.31.39,3.93.18,4.81-.63.56-.52.68-1.16.65-1.44-.01-.14,0-.27-.02-.41-.04-.36-.17-.72-.26-1.08-.14-.59-.29-1.19-.43-1.78-.17-.7-.34-1.4-.51-2.09-.11-.45-.22-.91-.33-1.36,0-.04-.02-.07-.03-.11,2.32-.45,5.35-.77,9.18-.65l.83.03-.46-.69c-.09-.14-8.59-12.92-11.88-23.75,10.58,7.18,20.23,9.75,28.6,9.75,19.32,0,31.91-13.67,33.82-15.88.32-.31,7.59-7.47,13.96-24.32,5.8-15.35,11.6-41.77,6.44-80.64l7.24,1.57,8.32-11.52c.41-.57.43-1.31.04-1.89ZM409.67,101.15l10.87-2.36-6.51,9.02-5.46-1.18,1.1-5.47ZM222.31,107.8l-6.51-9.02,10.87,2.36,1.1,5.47-5.46,1.18ZM216.41,127.67l-6.51-9.02,10.87,2.36,1.1,5.47-5.46,1.18ZM389.84,120.24l15.5-10.14c.52,7.08.8,13.95.82,20.47l-17.64,11.55c.74-6.61,1.17-13.8,1.33-21.88ZM372.59,131.53l7.36-4.81c-.33,8.12-1.01,15.46-2.06,22.35l-5.72,3.74c.54-6.71.71-13.8.42-21.28ZM371.9,155.71l9.15-5.99c-.53,12.58-2.22,25.17-6.14,37.15-1.98,6.12-4.55,12.08-7.69,17.78-3.1,5.62-6.8,10.98-10.9,15.93-2.15,2.59-4.42,5.07-6.78,7.45-1.7-1.64-2.97-3.09-3.75-4.06,12.18-15.19,23.1-37.63,26.11-68.26ZM331.8,223.45c-.23-.39-.64-.52-.97-.63l-.17-.06c-.2-.07-.33-.21-.33-.25.01-.04.14-.12.22-.18.11-.07.22-.15.36-.29.46-.62.46-1.35-.01-1.99-.65-.9-2.02-1.39-2.95-1.08-.43.1-.8.3-1.16.48-.18.09-.37.19-.56.27-.26.11-.9.33-1.32.04-.14-.09-.26-.25-.38-.41-.16-.21-.35-.45-.62-.62-.4-.26-.87-.29-1.24-.31l-4.97-.31c-.65-.07-1.07.15-1.35.71-.1.1-.32.1-.66.09-.28,0-.6-.02-.9.08-.52.17-.83.59-1.11.96-.16.22-.32.43-.5.57-.46.35-1.13.25-1.84.15-.33-.05-.67-.1-1-.1-.92-.03-2.24.39-2.93,1.27-.4.5-.52,1.08-.33,1.72.05.12.13.24.2.35.05.07.09.13.13.21.1.23,0,.57-.24.81-.29.31-.76.36-1.29.42-.58.06-1.24.13-1.74.62-.16.17-.26.37-.35.54-.08.16-.15.3-.25.38-.09.08-.22.14-.38.21-.15.06-.29.13-.43.22-.94.62-.94,1.74-.94,2.73,0,.43-.01.78-.06,1.06-7.88-7.53-15.93-18.07-22.3-31.85h6.47c.14.29.28.57.41.87.92,1.99,1.87,4.05,3.64,5.45.46.52.8,1.13,1.17,1.77.34.61.69,1.24,1.16,1.79.68.81,1.54,1.39,2.37,1.96,2.33,1.59,4.98,3.39,7.99,4.01.73.15,1.48.23,2.2.31.89.1,1.73.19,2.56.4.6.15,1.17.37,1.77.59.49.18.99.37,1.49.52,1.88.56,3.83.63,5.73.7,3.19.12,6.49.25,9.67-.59l.46-.12c1.57-.43,3.19-.87,4.29,0,.43.34.76.87,1.09,1.39.57.91,1.16,1.86,2.38,1.96.3-.01.37.04.38.05.07.06.07.38.07.61,0,.16,0,.33.02.54.09.58.52,1.02,1.15,1.19.17.04.34.07.51.07.55,0,1.07-.23,1.38-.63.78-.99.38-2.47-.48-3.23l-.08-.06c-.09-.08-.18-.15-.2-.21-.02-.04-.03-.16.19-.48,1.22-1.72,3.21-2.87,5.32-3.07.16-.02.32-.03.49-.04.74-.05,1.5-.1,2.16-.53l.62-.4-.66-.34c-.45-.23-.87-.51-1.26-.82,1.56-.87,3.25-1.16,5.11.91-4.79,7.32-9.99,13.31-15.1,18.04-.1-.18-.18-.4-.21-.68l-.03-.12c-.08-.18-.18-.33-.28-.46-.07-.1-.14-.19-.18-.27-.05-.13-.06-.3-.06-.49,0-.16-.01-.33-.04-.49-.15-.84-.88-1.52-2.04-1.92-.32-.11-.42-.18-.45-.22.08-.36.33-.74.59-1.14.48-.74,1.03-1.58.61-2.62ZM306.37,118.99c-13.57,4.75-24.31,1.44-30.62-1.92,1.32-.37,2.68-.75,4.11-1.12,12.38-2.38,21.63-.36,26.55,1.3-.07.58-.09,1.17-.03,1.74ZM311.13,119.5c.76,1.03,1.69,1.89,2.75,2.48l.53.29.1-.6c.18-1.08.05-2.35-.34-3.63.9-.47,1.8-.97,2.71-1.5.19.46.4.92.66,1.35l.32.53.38-.49c.34-.44.64-.98.87-1.58,8.9,5.33,17,7.18,23.94,7.18,8.51,0,15.29-2.77,19.66-5.26.06-.03.43-.26.71-.43,1.75.49,3.37.92,4.89,1.28.02.27.04.59.05.71,1.4,14.48,1.17,27.58-.28,39.37h-99.85c-1.51-11.99-1.79-25.31-.37-40.04,1.55-.35,3.21-.79,4.99-1.29,7.11,4.21,21.14,9.16,38.26,1.62ZM302.76,89.12h0c-.03-.14-.08-.27-.12-.41.84.77,1.84,1.33,2.91,1.61l.58.15-.05-.6c-.1-1.27-.76-2.71-1.8-3.95h0c-.71-.79-1.79-1.67-2.93-2.14.15-.68.21-1.43.19-2.21l2.94,2.28.82,1.16.07,2.38c.11.2.25.39.38.57.08.11.17.22.24.34l.08.12c.08.12.17.25.17.33,0,.9.27,1.75.81,2.59-.1.12-.19.24-.28.35-.22.28-.43.54-.66.79-.51.56-.86,1.18-1.1,1.92-.81-.61-1.75-1.27-2.11-1.46.19-1.16.16-2.49-.11-3.84ZM303.87,56.57c-.03.56-.1,1.13-.22,1.71-.18.92-.5,1.85-.93,2.7-.72,1.34-1.69,2.44-2.68,3.06,0-2.14.81-4.32,2.21-5.94.52-.6,1.05-1.11,1.62-1.54ZM303.22,55.03c-1.7-.22-3.14.25-4.28,1.39,0,0-.03.02-.05.03-.03-.45.11-.82.26-1.15.15-.3.3-.56.48-.79.38-.5.89-.94,1.51-1.29.36-.2.73-.27,1.09-.27.34,0,.66.06.97.13.35.09.55.33.63.77.07.33.05.55-.2,1.16-.02,0-.04,0-.06,0-.12.01-.24.03-.36.01ZM300.66,70.52h0c.02-.36,0-.72,0-1.08.76,1.02,1.76,1.85,2.89,2.32l.55.23.04-.6c.08-1.27-.37-2.79-1.23-4.16h0c-.56-.84-1.45-1.82-2.45-2.45,1.14-.69,2.22-1.89,3.03-3.4h0c.43-.87.76-1.8.96-2.72.31,1.02.75,1.99,1.19,2.73.81,1.33,1.96,2.43,3.28,3.16-1.44,2.55-1.58,5.65-.31,8.05l.29.55.41-.47c.73-.84,1.25-2.14,1.44-3.6.78,1.63,1.94,2.99,3.34,3.88-.49.4-.93.96-1.35,1.49-1.24,1.67-1.8,3.89-1.5,5.92l.09.6.53-.28c1.03-.55,2-1.67,2.67-3.11.3,1.79,1.04,3.44,2.15,4.74-1.07.69-2.02,1.63-2.69,2.72-.74,1.22-1.15,2.69-1.15,4.15v.6s.57-.2.57-.2c.97-.34,1.95-1.13,2.75-2.22-.09,1.85.29,3.68,1.12,5.25-.54.23-1.08.53-1.62.91-1.69,1.18-2.89,3.09-3.23,5.13l-.1.58.58-.09c1.03-.15,2.16-.77,3.15-1.73-.45,2.16-.21,4.45.68,6.35-.64.73-1.2,1.57-1.68,2.57-.9,1.84-1.22,3.99-.94,5.99-1.25-1.12-2.85-2.38-4.75-3.63-.14-.52-.3-1-.47-1.36h0c-.11-.21-.22-.41-.34-.61.75.28,1.54.44,2.33.44.21,0,.41-.01.62-.03l.56-.06-.21-.53c-.46-1.17-1.53-2.34-2.87-3.15h0c-.08-.05-.18-.09-.3-.14-.06-.91-.32-1.82-1.38-1.95-.38-.05-.76.02-1.14.09-.08.01-.16.03-.22-.02-.05-.04-.08-.1-.1-.16-.24-.73-.39-1.49-.46-2.26.59.44,1.23.79,1.9,1l.56.17v-.59c-.02-1.28-.58-2.75-1.54-4.04h0c-.08-.11-.28-.29-.53-.5.09-.23.18-.46.3-.66.54-.89,1.13-1.75,1.79-2.55.1-.12.24-.26.4-.23-.68-.42-1.11-.9-1.27-1.7-.12-.61-.15-1.28-.01-1.89.02-.1.06-.22.16-.25-.44-.12-.76-.55-.88-1-.12-.42-.16-1-.1-1.43l.03-.23-1.79-2.68s-1.81-.04-2.84-1.59c-.02-.04-.04-.06-.07-.09-.03-.29-.07-.59-.12-.89.72.6,1.52,1.07,2.38,1.32l.57.17-.02-.6c-.04-1.27-.63-2.74-1.62-4.02h0c-.8-1-1.88-1.81-3.03-2.34.55-1.07.92-2.4,1.03-3.84ZM299.91,65.45c.93.55,1.78,1.5,2.28,2.24.61.97.99,2.04,1.08,2.98-.86-.49-1.61-1.2-2.17-2.06-.34-.52-.61-1.11-.82-1.72-.08-.3-.16-.6-.26-.89-.04-.18-.09-.37-.12-.55ZM304.9,56.64c1.2.76,2.29,1.84,3.05,3.06.79,1.33,1.26,2.8,1.31,4.06-1.16-.65-2.17-1.64-2.89-2.81-.82-1.39-1.35-2.98-1.47-4.31ZM309.5,65.21c.34.93.51,2.15.45,3.34-.1,1.16-.41,2.22-.88,3-.76-1.94-.59-4.33.44-6.34ZM310.51,64.97c1.17.81,2.22,1.95,2.93,3.2.62,1.14.99,2.36,1.1,3.47v.48c-2.33-1.2-3.79-4.1-4.03-7.15ZM314.46,73.76c0,.13-.01.27-.02.4-.02.21-.04.41-.04.62-.09.8-.29,1.59-.59,2.32-.46,1.03-1.1,1.9-1.79,2.46-.07-1.62.44-3.3,1.43-4.63.3-.38.65-.83,1.01-1.17ZM318.93,88.16c.02,1.51-.28,2.95-.8,4.03l-.13-.06c-.92-1.8-1.23-4.02-.82-6.12.16-.73.36-1.58.65-2.25.66,1.35,1.05,2.88,1.1,4.39ZM318.46,81.78c.86.62,1.62,1.47,2.15,2.4.55,1.01.87,2.1.9,3.05-1.25-.83-2.24-2.2-2.71-3.8-.13-.51-.29-1.11-.35-1.65ZM316.23,111.37c-.32.66-.7,1.24-1.12,1.69-.5-2.06-.25-4.38.71-6.34.35-.73.75-1.37,1.19-1.94.11.54.17,1.1.2,1.68.03.52.01,1.06-.04,1.6-.31.69-.56,1.42-.75,2.24-.08.36-.15.71-.19,1.07ZM316.27,114.27s-.06.04-.1.06c-.16-.17-.35-.37-.55-.57.18-.19.36-.4.53-.62.01.38.06.75.11,1.13ZM309.92,113.39c1.15.86,2.15,2.05,2.82,3.33.69,1.39,1.04,2.9,1,4.16-1.65-1.12-2.91-2.99-3.44-5.1-.17-.75-.36-1.63-.38-2.39ZM310.01,117.55c-.08.03-.15.07-.23.1-.14-.06-.3-.13-.47-.21.08-.19.15-.39.21-.6h0c.03-.12.05-.25.08-.36.11.37.25.72.4,1.07ZM313.24,115.9c-.82-1.41-1.99-2.68-3.31-3.54,0-.55-.1-1.49-.28-2.44,2.01,1.38,3.62,2.75,4.8,3.88.02.07.03.13.05.2l.19.59.3-.24c.13.13.26.26.37.38-.03.02-.06.04-.1.05-.46.25-.91.5-1.37.75-.22.12-.44.25-.66.38ZM317.07,111.62c.3-.63.55-1.33.73-2.07h0c.09-.4.15-.8.2-1.21.21.49.4,1.01.54,1.56.25.9.39,1.89.39,2.86-.04,1.56-.4,3.03-.99,4.08-.77-1.56-1.07-3.42-.87-5.22ZM317.99,104.37c.76.75,1.38,1.67,1.79,2.65.41,1.04.59,2.08.53,2.97-1.46-1.34-2.34-3.45-2.32-5.61ZM317.28,102.86c-.75-1.97-.78-4.3-.08-6.38.26-.78.57-1.47.94-2.1.17.51.3,1.06.4,1.62.17.92.21,1.92.12,2.89-.18,1.55-.68,2.98-1.38,3.97ZM315.86,96.42c-.75.82-1.62,1.44-2.44,1.73.42-1.56,1.41-2.99,2.73-3.91.45-.32.9-.57,1.35-.78-.09.28-.22.57-.33.84l-.11.25c-.3.66-.72,1.31-1.2,1.87ZM315.78,74.6c.2.26.43.5.66.73.41.74.74,1.53.95,2.34.24,1,.32,2.01.27,2.93l-.05.34c-.01.09,0,.19-.01.29-.03.2-.06.4-.1.59l-.08.04c-1.32-1.51-2.13-3.61-2.2-5.77,0-.43,0-.9.03-1.37.02-.22.05-.44.06-.66,0-.04,0-.07.02-.11.15.22.31.44.46.64ZM315.57,72.67c1,.24,2,.72,2.81,1.36.88.72,1.57,1.62,1.95,2.49-1.14-.21-2.26-.81-3.17-1.67-.44-.8-.98-1.53-1.59-2.18ZM316.94,83.15c-.12,1-.51,2.17-1.11,3.2-.6.95-1.35,1.72-2.1,2.16.1-1.07.45-2.13.99-3.02.56-.92,1.34-1.73,2.22-2.34ZM308.54,104.16c.96.58,1.76,1.36,2.24,2.17-.97-.02-1.95-.29-2.81-.8-.23-.14-.45-.29-.67-.46-.54-.3-1.36-1.27-1.3-1.21-.17-.2-.33-.41-.46-.61,1.04.07,2.1.39,3,.9ZM306.25,102.62s.05-.09.07-.12c.16-.23.34-.39.56-.49.12-.06.25-.08.37-.08s.22.02.31.08c.08.05.14.11.19.18.05.08.08.17.1.27.02.12.03.24.04.35,0,.07,0,.14,0,.2-.51-.15-1.1-.29-1.64-.4ZM301.99,77.23c.7.91,1.18,1.94,1.36,2.87-.96-.43-1.82-1.14-2.5-2.05-.31-.81-.71-1.59-1.18-2.3-.06-.18-.13-.36-.18-.53.95.47,1.83,1.18,2.5,2.01ZM301.09,84.61c.98.42,1.94,1.22,2.54,1.88.74.87,1.27,1.88,1.49,2.8-.92-.36-1.77-.96-2.43-1.73-.71-.82-1.26-1.83-1.61-2.91,0-.01,0-.03.01-.04ZM305.61,96.04c.68.91,1.14,1.95,1.3,2.89-1.35-.62-2.52-1.81-3.19-3.31-.21-.49-.45-1.07-.58-1.61.94.48,1.81,1.19,2.46,2.03ZM305.45,104.52c.36.41.77.79,1.22,1.14.57.63,1.08,1.33,1.46,2.07.69,1.39,1.04,2.9,1,4.16-1.65-1.12-2.91-2.99-3.44-5.1-.04-.2-.09-.41-.14-.63-.03-.47-.11-.93-.22-1.39-.01-.13-.02-.25-.03-.37.05.04.09.08.14.12ZM308.72,116.59c-.34,1.06-.86,1.98-1.46,2.63-.14-.99-.06-2.02.23-2.98.35-1.09.91-2.11,1.52-2.83.11,1.06.01,2.16-.29,3.18ZM327.66,118.12c3.83-1.62,14.17-5.01,28.89-2.18,1.31.34,2.56.69,3.78,1.03-7.75,4.07-18.96,6.77-32.67,1.15ZM367.8,161.49c-1.87,13.57-5.34,25.36-9.74,35.47h-38.77v-1.05l2.61-5.55-2.49-7.53c1.31.19,2.66.6,3.99,1.34.27,1.1,1.52,5.69,3.62,6.39.76.25,1.67.36,2.59.36,1.81,0,3.66-.4,4.44-.9l.51-.32-.47-.37s-1.57-1.13-3.06-2.66c-2.02-2.08-1.96-5.99-1.85-8.02,0-.17.03-.41.06-.7.28-2.93,1.14-11.84-6.37-13.26-1.61-.3-3.26-.31-4.87-.02-1.42.25-2.8.72-4.09,1.35-1.08.52-2.1,1.15-3.06,1.86-.56.41-1.19.82-1.68,1.33-.6.63-.71,1.26-.83,2.09-.1.74-.18,1.48-.17,2.22,0,.41,0,.93.26,1.27.53.74,1.07.55,1.46.42.08-.03.17-.06.26-.08.13,1.09-.38,5.35-1,9.19l-.15.91.79-.47s2.58-1.5,5.98-1.94l-2.5,7.54,2.71,5.56v1.05h-37.54c-4.43-10.12-7.93-21.92-9.85-35.47h99.24ZM342.87,213.15c.34.33.71.63,1.11.89-.31.06-.66.09-1.01.11-.17.01-.34.02-.51.04-2.35.22-4.57,1.5-5.93,3.42-.13.18-.52.73-.29,1.29.1.26.29.42.45.55l.06.05c.56.49.85,1.45.38,2.05-.24.3-.69.35-1.01.26-.14-.04-.47-.16-.52-.46-.01-.15-.01-.3-.01-.44,0-.45,0-.91-.34-1.23-.23-.22-.56-.31-.95-.28-.73-.06-1.17-.76-1.67-1.56-.36-.58-.74-1.18-1.28-1.61-1.44-1.14-3.36-.62-5.05-.16l-.45.12c-3.06.81-6.29.68-9.41.56-1.84-.07-3.74-.15-5.52-.67-.49-.14-.96-.32-1.44-.5-.6-.22-1.22-.45-1.86-.62-.89-.23-1.8-.33-2.68-.43-.7-.08-1.43-.16-2.12-.3-2.84-.59-5.41-2.34-7.68-3.88-.78-.53-1.59-1.08-2.2-1.8-.42-.49-.73-1.06-1.07-1.66-.37-.66-.75-1.34-1.33-1.98-1.66-1.32-2.53-3.2-3.44-5.18-.08-.17-.16-.34-.24-.51h70.18c-2.32,5.05-4.87,9.66-7.56,13.85-2.49-2.6-4.87-1.65-6.53-.6l-.46.29.4.38ZM314.16,190.3l2.51-7.57c.58-.04,1.18-.05,1.79,0l2.51,7.58-2.51,5.33-.02,1.33h-1.64v-1.24l-2.64-5.42ZM325.49,172.95c-.89-2.01-2.6-3.78-4.76-4.13-1.79-.29-3.59.41-5.17,1.29-1.31.74-2.55,1.61-3.68,2.61-.52.46-1.02.94-1.59,1.33-.22.15-.59.45-.87.45-.3,0-.42-.38-.42-.62-.01-.91.05-1.83.19-2.73.04-.27.09-.54.21-.78.16-.33.43-.58.71-.82,2.94-2.53,6.69-4.25,10.57-4.26,1.56,0,3.16.29,4.46,1.14,1.85,1.21,2.86,3.39,3.21,5.56.35,2.18.14,4.4.05,6.6-.09,2.2-.04,4.47.79,6.51.75,1.83,2.13,3.4,3.85,4.38-1.49.52-3.1.7-4.66.5-.52-.06-1.05-.17-1.48-.46-.49-.32-.81-.84-1.1-1.35-.65-1.19-1.14-2.47-1.46-3.8-.06-.26-.12-.54-.3-.74-.12-.14-.29-.24-.45-.33-2.05-1.12-4.43-1.57-6.76-1.45-2.33.12-4.62.78-6.74,1.76.51-2.77.8-5.58.87-8.4,0-.15,0-.3.05-.44.01-.04.02-.07.04-.11.07-.16.21-.28.33-.4,1.63-1.49,3.41-2.84,5.39-3.8,1.46-.7,3.17-1.18,4.68-.62.87.32,1.59.96,2.15,1.7,1.69,2.2,2.03,5.11,2.31,7.86.27,0,.55-.02.82-.03-.19-2.18-.38-4.42-1.27-6.42ZM378.24,97.34c1.18-1.03,2.4-2.1,4.11-2.31,1.43-.17,3.06.13,5.01.93,3.68,1.48,5.02,1.05,6.21.67l.25-.08c.81-.3,2.07-1.11,2.98-1.72l-1.23,3.63,4.91.43c-.81.73-2.49,1.97-5.24,2.9-3.77,1.05-6.67-.34-9.24-1.57-.74-.36-1.45-.69-2.12-.94-2.64-.97-5.54-.8-7.9.39.6-.86,1.48-1.63,2.28-2.33ZM375.33,101.06c1.46-1.05,3.27-1.58,5.13-1.56.54,2.62,2.59,4.44,3.72,5.26-.83.79-2.92,2.18-7.35,2.39-.52-.7-2.25-3.34-1.5-6.09ZM347.97,103.28h0c4.26,0,8.7.71,13.18,2.1h0c14.59,4.46,21.08,2.1,23.24.34-.51,2.94-2.06,9.79-5.84,12.22-3.49,2.28-8.92.76-16.42-1.36-1.69-.48-3.48-.98-5.38-1.48-15.97-3.07-26.93,1.07-30.16,2.55-.66-.29-1.33-.6-2-.93-.13-.08-.26-.17-.4-.25-.55-.33-1.11-.65-1.66-.96-.45-.25-.91-.5-1.37-.75-.03-.02-.06-.04-.1-.05,3.38-3.57,12.47-11.44,26.92-11.44ZM331.16,104.77c.08.14.16.29.24.43.11.19.23.39.23.62.02.49-.59.66-.97.5-.65-.27-1.33-.83-1.84-1.3-.65-.6-2.25-2.81-.88-3.47.74-.36,1.48.47,1.87,1,.51.7.92,1.47,1.35,2.22ZM331.29,60.42c1.45-2.33.64-5.58-.09-7.8l-.12-.41c-1.76-5.93-2.75-10.65,1.77-13.01,2.46-1.24,5.7-1.74,9.89-1.53,10.22.5,20.63,4.25,30.93,11.15,12.06,8.07,23.1,16.52,33.75,25.82,1.58,1.38,3.24,2.77,4.84,4.12,4.16,3.49,8.47,7.1,12.1,11.11,1.03,1.14,2.01,2.23,2.45,3.52-.95-.4-1.85-1.01-2.8-1.66-.69-.47-1.41-.96-2.12-1.34-1.37-.82-2.09-1.3-3.29-2.46-.51-.43-1.24-.42-1.74.02-.5.45-.59,1.17-.2,1.75.26.36.4.57.48.75-.26-.13-.56-.31-.82-.51l-.07-.05c-.8-.52-1.61-1.2-2.4-1.86-.64-.54-1.31-1.09-1.96-1.56l-4.08-2.89,2.42,4.37c.17.31.32.64.44.98-.01,0-.02-.02-.03-.02-1.33-.99-2.8-1.65-4.22-2.3l-.56-.26c-.48-.24-1.07-.19-1.5.12-.36.26-.57.66-.59,1.08-1.05-.58-2-1.34-3.01-2.14-.27-.22-.54-.43-.81-.64l-1.01-.78-.66,1.08c-.06.11-.12.22-.18.33,0,.01-.01.02-.02.03-1.06-.35-1.79-.98-2.64-1.7-.41-.35-.84-.72-1.32-1.07-.43-.32-1-.37-1.48-.13-.48.24-.79.72-.8,1.27v.09c0,.28-.01.79-.07,1.11-.03-.01-.07-.03-.11-.05-1.64-.64-3.07-1.67-4.59-2.77-.82-.59-1.67-1.2-2.55-1.75l-.97-.6-.6.97c-.09.15-.16.3-.2.43-1.91-.73-3.66-1.97-5.36-3.18l-.4-.29c-.25-.19-1-.76-1.78-.26-.24.15-.59.5-.57,1.17-.55-.22-1.53-.77-3.27-2-.29-.2-.52-.36-.6-.42-.77-.55-1.38-.43-1.87-.24-.03.01-.06.03-.1.03-.12-.01-.34-.12-.48-.18-.96-.46-1.9-1.01-2.78-1.61-.08-.05-.17-.14-.28-.23-.59-.51-1.4-1.2-2.34-1.02-.44.08-.81.34-1.08.76-.54-.21-1.01-.18-1.4.08-.67.44-.63,1.22-.62,1.51.04.78-.15,1.6-.59,2.56-.14.3-.25.39-.25.4-.03,0-.18-.03-.49-.27-.03-.02-.06-.05-.08-.07-.22-.2-.69-.62-1.36-.51-.29.05-.7.21-1.02.71-.23.3-.37.37-.37.38-.03-.01-.17-.08-.39-.37l-.13-.17c-.42-.56-.94-1.25-1.88-1.63-.04-.06-.11-.17-.16-.24l-.13-.21c-.28-.42-.76-.66-1.26-.62-.51.04-.95.35-1.16.81l-.05.12c-.22-.24-.58-.54-1.1-.58-.41-.04-.73.09-.98.24-.72-.42-1.52-.5-2.34-.24-.42-.09-.75,0-.97.1-.64.3-.82.94-.88,1.15-.07.25-.22.76-.33.85-.92.44-1.24,1.19-1.45,1.68l-.05.12c-.13.27-.23.46-.31.58-.32-.25-.75-.34-1.15-.26-.44.1-.81.41-.99.83-.31.73-.98,1.25-1.78,1.79v-.02c-.05-.11-.08-.31-.11-.5-.05-.32-.11-.68-.25-1.06l-1.07-2.9-1.18,3.2c-.07.19-.12.34-.2.55-.28.87-1.33,1.63-1.98,1.59-.13,0-.39-.01-.58-.75-.02-.06-.02-.12-.03-.18-.04-.32-.11-.85-.52-1.35l-.94.75c-.28-1.36-1.23-2.79-1.39-3.14-.27-.6-.09-1.7.6-3.02.69-1.33-1.1-4.49-1.1-4.49,2.48-2.99,1.13-6.79-.11-9.07.84-.4,1.51-.98,1.98-1.73ZM326.56,61.39c.19.22.47.43,1.11.53.03.04.07.07.11.11,1,1.19,1.48,2.43,1.89,3.91.22.8.31,1.67.1,2.48-.16.62-.49,1.24-.95,1.68-.3.29-.57.62-.88.9-.05.04-.14.1-.23.16-.72.37-1.98.84-4.01,1.12,0,0-1.46,1.03,4.4-.18.32.37.63.76.89,1.18.34.54.53.86.38,1.49,0,.5-.37,1.11-.53,1.58-.18.52-.33,1.07-.29,1.63.09,1.37,1.39,2.17,1.73,3.43.18.68,0,1.44-.43,1.98-.16.21-.66.44-.73.66-.07.22.16.58.19.8.06.43.02,1.01-.1,1.43-.13.45-.44.88-.88,1,.1.03.14.15.16.25.13.61.1,1.28-.01,1.89-.15.8-.59,1.28-1.27,1.7.16-.03.29.1.4.23.66.8,1.25,1.66,1.79,2.55.59.96.71,2.31.74,3.42.03,1.18-.14,2.36-.51,3.47-.02.06-.04.13-.1.16-.06.04-.15.03-.22.02-.38-.07-.76-.14-1.14-.09-1.26.15-1.39,1.42-1.4,2.47l-1.81-2h0s-1.04,3.53-4.42,4c0,0,2.93.51,5.17-2.56.14.25.28.5.43.74.42.66.96,1.28,1.54,1.83.57.54,1.21,1.18,1.9,1.55.06.03.13.05.2.08-4.69,2.55-7.89,5.56-9.54,7.34-.17-.1-.35-.21-.52-.32.05-.41.09-.83.1-1.26h0c0-.79-.08-1.58-.23-2.33.25.25.52.48.81.69l.51.36.15-.6c.3-1.17.13-2.69-.46-4.19h0c-.55-1.33-1.46-2.54-2.54-3.43.75-1.11,1.28-2.61,1.48-4.28h0c.06-.64.06-1.29.02-1.92.87,1.14,2.01,2.02,3.27,2.46l.57.2v-.6c0-1.27-.54-2.76-1.48-4.09h0c-.77-1.04-1.84-1.91-2.97-2.48.58-1.2.9-2.76.88-4.42h0c-.02-.49-.07-.97-.14-1.45.6.69,1.31,1.26,2.09,1.65l.54.27.07-.6c.16-1.26-.2-2.81-.98-4.24h0c-.68-1.2-1.71-2.25-2.84-2.96.08-1.05-.02-2.19-.3-3.35h0c-.09-.34-.21-.67-.33-1,.95.57,2,.93,3.05.99l.58.03-.15-.57c-.32-1.24-1.21-2.53-2.45-3.55h0c-1-.8-2.25-1.34-3.49-1.59-.09-1.28-.52-2.69-1.24-4.02h0c-.91-1.61-2.33-3.04-3.88-3.92l-.21-.11c-.05-1.41-.55-2.99-1.42-4.46h0c-.45-.73-1.01-1.41-1.64-2.01.21.08.38.14.5.17.49.13,1.67,1.36,2.1,1.77.17.16.48.28.8.35l.08,1.74s1.01-1.66,2.08-1.78c0,0,2.53,1.05,2.84,3.64.15,1.28.18,2.94.46,4.2.05.24.12.49.29.66.18.18.44.24.69.29,1.55.27,3.28.1,4.65-.72.66-.39,1.42-.97,1.46-1.79.06-1.06-.23-2.06-.61-3.04-.24-.62-.51-1.22-.85-1.78-.17-.29-.36-.57-.57-.83-.24-.3-.53-.52-.79-.8-.07-.08-.12-.14-.14-.19,1.23-.1,4.57-.11,6.53,2.25ZM318.76,93.42c.93.51,1.79,1.26,2.43,2.12.67.93,1.12,1.98,1.27,2.92-1.34-.67-2.49-1.91-3.15-3.44-.2-.49-.42-1.07-.55-1.6ZM316.14,54.81l-.02.28c-.02.31-.03.61-.1.89-.19.83.24,1.38.74,1.86.12.11.26.19.38.27.06.04.11.07.17.11,1.35.94,2.44,2.12,3.24,3.53.56.97,1.24,2.15,1.46,3.26.2.96-.62,1.78-1.39,2.19-1.08.58-2.37.73-3.55.41-.12-.03-.25-.07-.34-.17-.15-.16-.16-.41-.15-.63.02-.52.03-1.01-.02-1.52,0,0-.06-.68-.06-.68-.01-.11-.03-.22-.03-.32v-.09c-.1-2.3-1.17-4.16-3.27-5.68-.38-.28-.92-.58-1.61-.35-.16.05-.32.07-.49.09-.08,0-.15.02-.22.03-.35.03-.58-.04-.82-.27-1.45-1.33-3.08-2.2-4.83-2.58,0,0-.03-.02-.06-.04.16-.88.16-1.64-.12-2.49.23-.16.5-.23.74-.39.27-.18.5-.4.74-.61.41-.37.87-.74,1.41-.78.25-.01.49.05.73.12.19.06.38.06.58.09.48.07.98.08,1.43-.1.29-.12.59-.31.9-.25.25.05.43.26.64.39.21.13.47.18.7.26.4.12.74-.02,1.03-.14.09-.04.17-.07.26-.1,1.35.75,1.97,1.87,1.91,3.42ZM309.7,48.95c.96.41,1.96.04,1.96.04l.16-.07c.65-.28,1.13-.42,1.57-.43.47-.02.89.11,1.16.35.21.19.35.43.41.6.04.1.13.41.02.7-.07.11-.16.21-.26.3-.43.38-1.05.47-1.55.19-.39-.21-.69-.61-1.12-.71-.46-.1-.71.24-1.09.41-.63.28-1.34-.05-2.02-.14-1.33-.16-2.22.65-3.06,1.57-.31.34-.78.73-1.27.62-.21-.05-.36-.21-.53-.35-.23-.19-.48-.29-.78-.32-.53-.06-1.07.05-1.57-.16-.81-.33-.69-1.21-.24-1.81.59-.78,2.09-.24,2.77.21.14.09.28.19.44.2.19,0,.34-.07.49-.19l.3-.27c2-2.97,3.25-1.14,4.21-.74ZM294.95,79.37c-.28.11-.55.34-.78.71-.07-.11-.15-.26-.24-.45l-.06-.14c-.21-.49-.52-1.24-1.43-1.67-.13-.1-.27-.62-.34-.86-.06-.21-.24-.85-.88-1.15-.22-.1-.55-.19-.97-.1-.82-.26-1.62-.18-2.34.24-.24-.15-.58-.28-.98-.24-.5.04-.86.33-1.1.59l-.05-.12c-.21-.46-.65-.77-1.15-.81-.5-.04-.99.2-1.26.62l-.13.21c-.05.08-.11.19-.16.25-.94.38-1.46,1.07-1.87,1.63l-.13.17c-.22.29-.36.36-.36.37-.03-.01-.19-.09-.43-.42-.12-.16-.47-.64-1.11-.69-.29-.02-.72.04-1.15.45-.35.34-.56.42-.6.42-.36-.13-.93-1.63-.9-2.96.01-.29.05-1.07-.62-1.51-.39-.26-.86-.29-1.4-.08-.25-.41-.63-.68-1.08-.76-.94-.18-1.75.51-2.34,1.02-.11.09-.2.18-.24.2l-.58.37c-.94.6-1.82,1.17-2.76,1.44-.02,0-.05-.02-.07-.03-.49-.19-1.09-.31-1.82.2-.16.1-.4.27-.71.48-1.07.75-1.93,1.31-2.56,1.65-.28.16-.64.03-.76-.27-.09-.23-.25-.46-.54-.62-.77-.43-1.49.13-1.75.34l-.36.26c-1.7,1.21-3.45,2.45-5.36,3.18-.05-.13-.11-.28-.21-.43l-.6-.97-.97.6c-.88.54-1.73,1.16-2.55,1.75-1.52,1.1-2.95,2.13-4.66,2.8-.01,0-.02.01-.03.02-.06-.33-.06-.84-.07-1.12v-.09c-.01-.54-.32-1.02-.8-1.26-.48-.24-1.05-.19-1.48.13-.49.36-.91.72-1.32,1.07-.85.73-1.59,1.37-2.64,1.7-.03-.06-.05-.12-.08-.19-.1-.23-.18-.49-.28-.74-.13-.33-.54-.43-.83-.22-.21.16-.41.33-.61.47-.47.33-.93.69-1.4,1.05-.84.65-1.64,1.28-2.5,1.75-.02-.43-.23-.83-.59-1.09-.44-.32-1.02-.36-1.5-.12l-.56.26c-1.42.65-2.89,1.31-4.21,2.29-.02.01-.03.02-.05.03.11-.33.25-.64.42-.95.02-.03.03-.06.04-.09.14-.55.38-1.07.47-1.63.13-.81-.7-.76-1.23-.43l-.97.61s-.02.01-.03.02c-.2.15-.49.39-.98.81-1.96,1.67-3.36,2.73-4.19,3.17.09-.19.23-.41.5-.79.37-.56.28-1.28-.21-1.73-.5-.45-1.23-.46-1.79.02-1.43,1.37-2.94,2.28-4.54,3.24-.79.47-1.6.96-2.42,1.52-.39.26-.83.5-1.21.68.43-1.3,1.42-2.4,2.49-3.58,3.6-3.98,7.91-7.59,12.07-11.08,1.6-1.34,3.26-2.73,4.84-4.11,10.65-9.3,21.69-17.74,33.75-25.82,10.3-6.9,20.7-10.65,30.93-11.15,3.26-.19,9.13-.03,11.8,3.1,1.28,1.51,1.73,4.12,1.24,6.77-1.22-.16-2.32,1.6-2.32,1.6-.64-.33-1.37-.57-2.08-.47-1.22.18-1.82,1.37-1.52,2.53l.02.11c.05.17.09.32.15.49-.03.07-.08.12-.16.18-.06.05-.12.08-.18.12-.09.06-.19.12-.27.19-.16.14-.32.26-.48.39-.3.23-.61.47-.88.76-1.28,1.35-1.66,2.95-1.11,4.78.02.1.05.19.08.3.6,1.63.39-1.06,1.9-1.78,1.28-.61,2.41-.71,3.27-.64-.51.41-1,.88-1.48,1.44-1.53,1.77-2.39,4.16-2.4,6.5-.1.02-.19.05-.28.07h0s0,0,0,0c-1.98.45-3.75,2.23-4.19,4.29l-.12.54.55-.03c.89-.04,1.69-.49,2.25-.9-.62,2.2-.51,4.52.29,6.55-1.42,1.26-2.38,2.99-2.75,4.8ZM297.52,78.31c-.06.27-.14.52-.21.75-.36.96-.85,1.77-1.41,2.37-.07.04-.14.08-.23.1-.17-2.03.59-4.2,2.04-5.78-.14.75-.18,1.57-.2,2.29,0,.09,0,.18.01.26ZM297.42,66.91c-.52.5-1.11.86-1.67,1.03.5-1.31,1.64-2.43,2.91-2.89,0,.02-.02.03-.02.05-.2.28-.37.61-.53.96-.21.31-.44.59-.69.84ZM298.27,68.12c.18-.54.38-1.16.62-1.7.09-.13.17-.26.25-.4.03.08.05.16.08.24.08.34.18.68.3,1.01.25,1.05.36,2.13.3,3.19-.11,1.34-.46,2.59-.98,3.57l-.27.36-.06-.11c-.74-1.89-.84-4.12-.24-6.15ZM298.37,78.36c.2-.87.29-1.74.24-2.52l.04-.05c.09.12.17.25.25.38.13.35.28.69.42,1.01.21.45.47.88.76,1.28.15.42.29.84.39,1.26.28,1.35.27,2.68.04,3.8l-.53-.11c-.98-1.42-1.56-3.22-1.61-5.06ZM299.22,84.96c-.17.69-.22,1.47-.25,2.2-.09.38-.19.75-.31,1.07-.44,1.07-1.04,1.97-1.72,2.55-.16-2.1.7-4.33,2.27-5.9,0,.03,0,.05,0,.08ZM300.98,98.04c-.33,1.11-.85,2.06-1.47,2.7-.35-2.08.29-4.38,1.71-6.09.17,1.14,0,2.44-.24,3.39ZM301.87,93.57s-.03-.04-.05-.06l-.22-.28-.08-.12c-1.09-1.52-1.72-3.48-1.71-5.47,0-.11,0-.22.01-.33.15-.63.24-1.31.25-1.98.87,1.16,1.53,2.56,1.85,3.97.31,1.53.29,3.07-.06,4.27ZM302.91,101.16c-.72-1.68-.94-3.72-.62-5.77.93,1.12,1.67,2.52,2.05,3.93.27,1.01.35,2.06.28,3.09l-.02.2-.08.59s0,.02,0,0c-.02.13-.03.27-.06.4-.55-.56-1.1-1.42-1.55-2.44ZM303.76,106.43c.21-.46.46-.99.74-1.43.04.41.11.81.19,1.21.05.71.03,1.42-.09,2.11-.23,1.15-.66,2.17-1.22,2.9-.4-1.52-.27-3.27.39-4.8ZM252.54,99.27c-.68.25-1.38.59-2.12.94-2.56,1.23-5.47,2.62-9.24,1.57-2.76-.93-4.43-2.16-5.24-2.9l4.91-.43-1.23-3.63c.9.61,2.17,1.42,2.98,1.72l.25.08c1.18.38,2.53.82,6.21-.67,1.95-.8,3.58-1.1,5.01-.93,1.71.21,2.93,1.28,4.11,2.31.8.7,1.68,1.47,2.28,2.33-2.36-1.2-5.26-1.36-7.9-.39ZM255.95,99.51c1.85-.02,3.67.51,5.13,1.56.76,2.75-.98,5.39-1.5,6.09-4.43-.21-6.52-1.6-7.35-2.39,1.13-.82,3.18-2.64,3.72-5.26ZM257.87,117.95c-3.78-2.43-5.34-9.28-5.84-12.22,2.15,1.75,8.64,4.11,23.24-.34h0c4.48-1.4,8.92-2.1,13.18-2.1h0c5.67,0,10.49,1.22,14.49,2.91-.82,1.97-.87,4.16-.14,6.03l.23.58.46-.43c.89-.83,1.59-2.2,1.93-3.79.71,1.64,1.84,3.04,3.2,3.98-.8.82-1.5,2.05-1.94,3.4-.04.14-.06.28-.1.42-5.07-1.7-14.44-3.68-26.9-1.29-1.76.46-3.41.92-4.99,1.37,0,0,0,0,0,0h0c-.13.04-.27.08-.39.11-7.51,2.11-12.93,3.64-16.42,1.36ZM263.72,131.51c-.26,7.29-.1,14.4.47,21.32l-5.75-3.76c-1.05-6.89-1.73-14.23-2.06-22.35l7.34,4.8ZM264.45,155.72c1.89,18.81,6.87,36.05,14.83,51.07,3.28,6.2,7.11,12,11.29,17.22-.77.95-1.99,2.35-3.62,3.93-2.37-2.39-4.65-4.88-6.81-7.49-4.11-4.95-7.8-10.31-10.9-15.93-3.14-5.7-5.71-11.65-7.69-17.78-3.89-11.91-5.59-24.42-6.13-36.94l9.04,5.92ZM231,110.1l15.49,10.14c.16,8.07.59,15.26,1.33,21.88l-17.64-11.54c.02-6.52.29-13.4.82-20.47ZM244.96,232.21c-.08-.07-7.59-7.46-13.78-23.89-5.63-14.97-11.25-40.69-6.36-78.53l18.53,12.13c.04,2.24.09,4.48.17,6.72.48,12.9,2.17,25.83,6.18,38.11,1.98,6.12,4.55,12.08,7.69,17.78,3.1,5.62,6.8,10.98,10.9,15.93,3.76,4.54,7.88,8.74,12.25,12.65-7.97,5.29-19.79,9.1-33.74,1.07-.91-.9-1.54-1.59-1.85-1.96ZM249.31,236.46c4.84,2.29,9.41,3.22,13.62,3.22,14.53,0,24.9-10.98,28.18-14.98,4.07,5.01,8.47,9.46,13.03,13.19-26.24,17.72-46.25,5.87-54.84-1.43ZM294.77,263.27c1.83-2.85,8.8-14.01,11.64-23.6,1.79,1.35,3.59,2.59,5.41,3.71l-2.88,22.34c-1.5-.77-5.93-2.59-14.17-2.45ZM304,264.97c2.77.62,4.34,1.4,4.85,1.68,0,.06-.04.17-.15.31-.25.3-.99.84-3.17,1.05-1.12.11-1.91.46-2.49.9l.96-3.94ZM311.14,276.83c-.24.2-.43.43-.59.66l-.13-3.77c.4.12.69.27.9.42.58.43.65.95.66.96h.03c.02.26,0,.99-.86,1.73ZM312.07,273.66c-.99-.9-2.44-1.06-3.77-.96-1.33.1-2.66.41-3.98.29-.51-.05-1.04-.17-1.4-.53-.6-.59-.51-1.65.02-2.31.53-.66,1.37-.98,2.2-1.16.83-.17,1.68-.22,2.49-.47.81-.25,1.6-.75,1.92-1.53.14-.33.19-.69.23-1.05l1.2-9.4c.2-1.57.4-3.13.6-4.7l.6-4.7c.1-.78.2-1.57.3-2.35.02-.2.05-.39.07-.59.01-.08,0-.2.04-.28.04-.1.09-.03.18.02.34.2.68.39,1.03.59.17.1.34.2.51.29-.75,9.61-1.5,19.22-2.25,28.83ZM325.78,277.49c-.16-.23-.36-.45-.59-.66-.65-.56-.82-1.12-.85-1.47l.03-.25s.07-.53.66-.97c.21-.15.5-.31.9-.42l-.13,3.77ZM333.59,272.16c-.05.08-.11.15-.17.22-.44.47-1.17.62-1.84.64-1.25.04-2.5-.24-3.75-.31-1.25-.07-2.59.1-3.57.89-.72-9.17-1.44-18.34-2.16-27.51-.03-.38-.06-.79.1-1.14.27-.61.99-.86,1.64-1.05.84,6.93,1.68,13.85,2.52,20.78.14,1.18.34,2.46,1.23,3.25,1.08.96,2.65.79,3.96,1.14,1.22.32,2.96,1.64,2.04,3.09ZM333.29,268.91c-.57-.44-1.37-.79-2.49-.9-2.18-.21-2.92-.75-3.17-1.05-.11-.14-.14-.25-.15-.31.51-.28,2.08-1.06,4.85-1.68l.96,3.94ZM341.57,263.27c-8.22-.14-12.67,1.68-14.17,2.45l-2.88-22.36c1.74-1.08,3.55-2.32,5.4-3.72,2.84,9.59,9.81,20.78,11.65,23.63ZM318.16,242.98c-4.68-2.29-10.15-6-15.72-11.21.2-.53.2-1.16.2-1.72,0-.85,0-1.65.55-2.02.09-.06.2-.1.3-.15.2-.08.42-.18.61-.36.2-.19.32-.42.43-.62.07-.14.14-.27.2-.34.27-.27.71-.31,1.21-.37.62-.06,1.31-.14,1.81-.66.5-.47.67-1.2.41-1.76-.05-.12-.12-.23-.2-.34-.05-.07-.1-.14-.11-.16-.09-.32-.03-.61.2-.9.49-.62,1.52-.98,2.23-.94.29,0,.59.05.91.09.81.12,1.73.24,2.47-.31.28-.21.49-.48.68-.75.22-.3.42-.57.68-.65.16-.05.39-.05.62-.04.46.01,1.03.03,1.39-.46l.05-.08c.12-.27.2-.31.53-.27l4.99.31c.31.02.62.04.84.18.14.09.27.25.4.42.15.2.33.42.57.59.54.38,1.33.39,2.14.04.21-.09.41-.19.61-.3.33-.17.64-.33,1-.42.61-.2,1.59.17,2.02.76.25.34.25.66.06.93-.06.05-.12.1-.19.14-.2.13-.47.31-.56.65-.16.58.31,1.09.86,1.29l.19.07c.22.07.44.14.48.2.21.53-.07,1.02-.57,1.78-.32.49-.66,1-.73,1.57v.06s0,.06,0,.06c.08.62.73.84,1.04.95.4.14,1.34.53,1.48,1.26.02.12.02.24.03.36,0,.25.01.52.13.8.08.18.18.32.28.45.06.08.12.16.16.23.06.45.2.81.41,1.1-5.35,4.86-10.58,8.35-15.09,10.54ZM332.17,237.85c4.3-3.52,8.75-7.9,13.07-13.19,3.25,3.96,13.63,15.02,28.21,15.02,4.2,0,8.75-.92,13.57-3.19-8.69,7.35-28.72,19.05-54.85,1.36ZM405.15,208.32c-6.18,16.43-13.55,23.72-13.62,23.79-.33.38-.99,1.12-1.96,2.07-13.88,7.98-25.64,4.25-33.61-1,4.35-3.9,8.45-8.08,12.2-12.6,4.11-4.95,7.8-10.31,10.9-15.93,3.14-5.7,5.71-11.65,7.69-17.78,4.02-12.29,5.7-25.21,6.18-38.11.08-2.31.14-4.62.18-6.93l18.41-12.05c4.89,37.84-.73,63.56-6.36,78.53ZM419.93,127.67l-5.46-1.18,1.1-5.47,10.87-2.36-6.51,9.02Z"/>
        <path class="cls-4" d="M350.83,109.6c.6.04,1.2.09,1.8.14.32.03.55.09.69.17.25.15.37.4.34.75-.02.31-.04.6-.06.9,0,.21-.01.35-.01.43l.04.19c.31.03.62.07.93.11l.02-.12c-.11-.07-.19-.18-.2-.36-.02-.1-.02-.26,0-.46.02-.24.05-.49.06-.73.03-.32,0-.55-.1-.71-.1-.15-.26-.28-.47-.39.27-.1.49-.23.66-.43.18-.18.29-.44.33-.76.09-.62-.14-1.08-.67-1.37-.29-.15-.66-.24-1.12-.29-.95-.09-1.88-.16-2.82-.21-.13,1.79-.25,3.6-.37,5.4.26.01.51.03.77.05.06-.78.12-1.55.17-2.32ZM351.04,107.15c.67.05,1.32.1,1.99.16.28.02.5.09.65.18.3.18.41.45.38.83-.05.35-.19.59-.42.71-.24.11-.53.16-.91.11-.61-.06-1.22-.11-1.84-.15.05-.62.11-1.23.15-1.84Z"/>
        <path class="cls-4" d="M359.99,111.92c.32-.41.55-.89.67-1.46.17-.72.1-1.35-.19-1.9-.34-.61-.92-.99-1.73-1.13-.81-.14-1.62-.27-2.43-.38-.28,1.78-.55,3.57-.81,5.35.75.11,1.5.22,2.24.34.96.17,1.69-.11,2.25-.83ZM356.36,111.9c.21-1.37.43-2.73.66-4.1.48.07.96.15,1.42.23.65.11,1.09.37,1.3.8.22.42.25.96.11,1.61-.03.18-.09.35-.17.55-.14.31-.3.57-.49.76-.25.23-.52.37-.83.41-.17.02-.39,0-.65-.04-.44-.07-.89-.14-1.34-.21Z"/>
        <path class="cls-4" d="M365.28,113.8c-1.1-.31-2.2-.6-3.32-.86.14-.59.29-1.19.44-1.78,1.04.24,2.07.51,3.1.79.06-.2.12-.4.18-.6-1.03-.29-2.08-.56-3.13-.8.13-.53.27-1.06.4-1.6,1.16.27,2.31.57,3.46.89.06-.21.13-.42.19-.63-1.41-.4-2.83-.76-4.26-1.08-.43,1.75-.84,3.51-1.25,5.27,1.35.3,2.68.64,4.01,1.01.06-.21.12-.41.18-.62Z"/>
        <path class="cls-4" d="M366.74,114.91c.45-1.39.9-2.78,1.37-4.17.51,1.69.95,3.38,1.34,5.07.26.1.53.19.79.29.65-1.69,1.3-3.37,1.97-5.05-.24-.09-.48-.18-.73-.27-.53,1.37-1.05,2.73-1.56,4.1-.38-1.69-.82-3.38-1.32-5.07-.31-.1-.61-.19-.92-.28-.56,1.72-1.1,3.44-1.64,5.16.23.07.46.14.69.21Z"/>
        <path class="cls-4" d="M337.96,112.21c.26-.03.52-.06.78-.08-.07-.72-.14-1.45-.21-2.17.64-1.15,1.32-2.29,2.04-3.42-.33.02-.65.05-.98.07-.53.91-1.04,1.83-1.53,2.76-.65-.8-1.33-1.59-2.02-2.38-.32.04-.65.09-.97.13.91.96,1.8,1.93,2.66,2.92.08.72.15,1.45.23,2.17Z"/>
        <path class="cls-4" d="M346.09,111.92c.93,0,1.66-.29,2.19-.9.46-.52.71-1.18.76-1.99.04-.74-.12-1.36-.5-1.86-.48-.63-1.28-.96-2.36-.97-1.04,0-1.84.35-2.35,1.03-.4.54-.58,1.17-.57,1.89.02.81.28,1.48.74,1.99.52.54,1.21.8,2.09.8ZM344.67,107.44c.4-.39.92-.59,1.55-.59.65,0,1.15.2,1.51.6.36.4.52.91.49,1.55-.02.61-.2,1.13-.53,1.59-.32.46-.82.68-1.5.67-.72,0-1.24-.2-1.58-.6-.32-.41-.5-.91-.51-1.51,0-.74.18-1.32.57-1.71Z"/>
        <path class="cls-4" d="M261.84,116.23c-.57-1.54-1.15-3.08-1.75-4.62-.26.09-.53.19-.79.28.7,1.73,1.37,3.47,2.03,5.22,1.16-.42,2.32-.8,3.5-1.16-.07-.21-.13-.42-.2-.63-.94.29-1.87.59-2.8.91Z"/>
        <path class="cls-4" d="M264.17,110.48c.59,1.77,1.16,3.55,1.7,5.33.25-.07.51-.15.76-.22-.53-1.79-1.08-3.57-1.65-5.35-.27.08-.54.15-.82.23Z"/>
        <path class="cls-4" d="M271.24,111.59c-.18-.11-.44-.18-.76-.22.18-.14.31-.28.39-.42.17-.27.21-.57.13-.91-.07-.29-.22-.54-.45-.73-.39-.32-.96-.39-1.67-.24-.87.2-1.74.42-2.6.64.55,1.78,1.06,3.59,1.57,5.37.78-.21,1.58-.4,2.37-.59.75-.16,1.25-.49,1.5-.99.18-.33.22-.67.14-1.02-.1-.42-.3-.73-.62-.9ZM267.74,111.78c-.16-.55-.32-1.11-.48-1.66.48-.13.97-.24,1.46-.35.36-.08.63-.12.83-.09.35.06.57.26.67.61.09.36-.01.63-.26.83-.17.13-.42.23-.76.31-.49.11-.97.22-1.45.34ZM271.01,113.26c-.14.3-.45.51-.92.61-.57.14-1.12.26-1.67.4-.17-.64-.35-1.27-.52-1.9.52-.13,1.05-.26,1.57-.38.33-.08.61-.1.83-.07.41.07.67.29.76.69.05.23.03.45-.05.64Z"/>
        <path class="cls-4" d="M277.31,112.22c-1.19.15-2.38.33-3.55.54-.12-.62-.24-1.24-.37-1.86,1.1-.19,2.2-.36,3.3-.51-.03-.21-.07-.43-.1-.64-1.12.15-2.23.32-3.33.52-.12-.56-.23-1.11-.35-1.66,1.22-.22,2.45-.4,3.68-.57-.04-.23-.07-.45-.11-.68-1.52.2-3.03.44-4.53.72.41,1.82.8,3.64,1.17,5.47,1.41-.26,2.84-.49,4.28-.67-.03-.22-.06-.44-.09-.66Z"/>
        <path class="cls-4" d="M279.68,112.48c-.09-.79-.19-1.58-.29-2.37.62-.06,1.24-.12,1.87-.17.33-.02.58,0,.75.04.29.11.45.35.5.7.05.31.09.62.14.93.03.21.04.36.07.43l.08.18c.33-.02.66-.04.99-.05v-.13c-.14-.04-.23-.15-.3-.32-.03-.1-.07-.26-.08-.47-.03-.25-.07-.5-.09-.75-.03-.32-.11-.56-.25-.69-.13-.13-.33-.24-.57-.32.26-.14.45-.33.59-.55.13-.22.2-.5.16-.84-.06-.63-.38-1.05-1.01-1.26-.33-.11-.73-.14-1.21-.1-.98.08-1.95.18-2.92.29.28,1.84.54,3.68.78,5.53.26-.03.53-.05.79-.08ZM281.11,107.39c.3-.02.53,0,.71.06.34.12.53.38.57.78.04.37-.05.63-.27.78-.22.16-.52.26-.91.29-.65.05-1.28.11-1.92.18-.08-.64-.17-1.27-.26-1.9.69-.07,1.38-.13,2.07-.19Z"/>
        <path class="cls-4" d="M285.61,107.12c.09,1.64.17,3.28.23,4.92.27,0,.55,0,.82-.01-.04-1.64-.1-3.28-.18-4.92.71,0,1.43,0,2.15,0,0-.22-.01-.44-.02-.67-1.74-.03-3.47,0-5.19.08.02.22.04.44.06.66.71-.03,1.42-.06,2.13-.07Z"/>
        <path class="cls-4" d="M289.04,112.01c.22-.55.44-1.1.67-1.66.82.03,1.62.06,2.44.11.19.57.37,1.14.55,1.71.3.02.59.05.9.06-.62-1.91-1.31-3.83-2.07-5.74-.32-.01-.66-.03-.98-.04-.81,1.83-1.59,3.67-2.33,5.53.27,0,.55.01.83.01ZM290.99,107.31c.32.84.62,1.68.9,2.52-.63-.04-1.29-.07-1.94-.09.34-.81.69-1.63,1.04-2.44Z"/>
        <path class="cls-4" d="M299.19,111.61c.31-.45.5-.96.57-1.55.1-.76-.04-1.43-.43-1.98-.44-.61-1.1-.98-1.99-1.09-.88-.1-1.76-.2-2.64-.27-.09,1.87-.2,3.73-.33,5.58.81.08,1.63.17,2.45.27,1.04.12,1.83-.19,2.36-.96ZM295.25,111.74c.11-1.43.22-2.86.31-4.29.52.05,1.04.11,1.55.17.71.08,1.21.34,1.48.77.28.42.38.99.3,1.67-.03.18-.06.37-.13.57-.11.34-.27.62-.46.82-.24.25-.52.41-.86.46-.18.03-.42.03-.69,0-.5-.06-.99-.11-1.49-.16Z"/>
        <path class="cls-4" d="M324.37,209.39h-.09s0-.5,0-.5h-.8v-1.39h1.53v-3.61h-.03s-1.16,0-1.16,0h-.34s0-1.06,0-1.06c.02-.28-.11-.53-.34-.67-.23-.14-.53-.15-.77-.02-.24.13-.37.38-.37.67v1.09h-1.28q-.43,0-1.03,0h-.28v-1.08c0-.28-.14-.53-.38-.67-.24-.14-.55-.13-.78,0-.23.14-.35.39-.34.65v1.09h-.28c-.59,0-1.03,0-1.03,0h-1.26v-1.08c0-.28-.14-.53-.38-.67-.24-.14-.55-.13-.78,0-.23.14-.35.39-.34.65v1.09h-1.53v3.62h1.53v1.39h-1.03v.5h-.09s-1.02-1.29-1.02-1.29h-3.86l1.75,2.57,2.16,1.4,6.78.05h0s.01,0,.01,0h.01s0,0,0,0l6.78-.05,2.16-1.4,1.75-2.57h-3.86l-1.02,1.29ZM321.56,204.74h2.58v1.91h-2.58v-1.91ZM321.99,207.5v1.39h-.99v.57l-.95.02v-.59h-.64v-1.39h2.58ZM317.36,204.74h.28c.59,0,.89-.2,1.02-.31.14.11.43.3,1.02.3h.28v1.91h-2.6v-1.91ZM317.91,207.5v1.39h-.87v.59l-.95-.02v-.57h-.75v-1.39h2.56ZM313.17,206.64v-1.91h2.58v1.91h-2.58ZM327.63,208.96l-.79,1.16-1.74,1.1-6.55.05-6.55-.05-1.74-1.1-.79-1.16h1.83l1.01,1.28,1.37.03v-.52h1.57v.55l2.66.05v-.61h1.3v.61l2.66-.05v-.55h1.57v.52l1.37-.03,1.01-1.28h1.83Z"/>
        <path class="cls-4" d="M324.37,233.53h-.09s0-.5,0-.5h-.8v-1.39h1.53v-3.61h-.03s-1.16,0-1.16,0h-.34s0-1.06,0-1.06c.02-.28-.11-.53-.34-.67-.23-.14-.53-.15-.77-.02-.24.13-.37.38-.37.67v1.09h-1.28q-.43,0-1.03,0h-.28v-1.08c0-.28-.14-.53-.38-.67-.24-.14-.55-.13-.78,0-.23.14-.35.39-.34.65v1.09h-.28c-.59,0-1.03,0-1.03,0h-1.26v-1.08c0-.28-.14-.53-.38-.67-.24-.14-.55-.13-.78,0-.23.14-.35.39-.34.65v1.09h-1.53v3.62h1.53v1.39h-1.03v.5h-.09s-1.02-1.29-1.02-1.29h-3.86l1.75,2.57,2.16,1.4,6.78.05h0s.01,0,.01,0h.01s0,0,0,0l6.78-.05,2.16-1.4,1.75-2.57h-3.86l-1.02,1.29ZM321.56,228.88h2.58v1.91h-2.58v-1.91ZM321.99,231.64v1.39h-.99v.57l-.95.02v-.59h-.64v-1.39h2.58ZM317.36,228.88h.28c.59,0,.89-.2,1.02-.31.14.11.43.3,1.02.3h.28v1.91h-2.6v-1.91ZM317.91,231.64v1.39h-.87v.59l-.95-.02v-.57h-.75v-1.39h2.56ZM313.17,230.78v-1.91h2.58v1.91h-2.58ZM327.63,233.1l-.79,1.16-1.74,1.1-6.55.05-6.55-.05-1.74-1.1-.79-1.16h1.83l1.01,1.28,1.37.03v-.52h1.57v.55l2.66.05v-.61h1.3v.61l2.66-.05v-.55h1.57v.52l1.37-.03,1.01-1.28h1.83Z"/>
        <path class="cls-4" d="M304.52,103.19s0,0,0,0c-.02-.03,0-.01,0,0Z"/>
      </g>
      <g>
        <rect class="cls-5" x="250.3" y="459.83" width="20.07" height="115.77" transform="translate(-257.38 778.06) rotate(-90)"/>
        <rect class="cls-6" x="337.1" y="488.8" width="20.07" height="57.83" transform="translate(-170.58 864.86) rotate(-90)"/>
        <rect class="cls-3" x="394.94" y="488.8" width="20.07" height="57.83" transform="translate(-112.75 922.69) rotate(-90)"/>
      </g>
    </g>
  </g>
  <line class="cls-1" x1="845.95" y1="6.19" x2="845.95" y2="556.89"/>
</svg>