<svg width="177" height="34" viewBox="0 0 177 34" fill="none" xmlns="http://www.w3.org/2000/svg">
<path d="M28.1096 33.2089C26.8593 33.2089 25.6867 32.724 24.8022 31.8468C23.9199 30.9674 23.4344 29.7992 23.4367 28.5583L23.4522 11.8249L17.5312 17.7385C17.0723 18.1969 16.3829 18.3336 15.7822 18.0867C15.1814 17.8399 14.7891 17.258 14.7891 16.6122V1.59578C14.7891 0.714152 15.5073 3.05176e-05 16.394 3.05176e-05H24.9817C29.2823 3.05176e-05 32.7825 3.48027 32.7825 7.75619V28.5627C32.7825 31.1238 30.6855 33.2089 28.1096 33.2089ZM25.0593 6.36101C25.2655 6.36101 25.4739 6.40068 25.6712 6.48223C26.2719 6.72909 26.662 7.31096 26.662 7.95896L26.6443 28.5605C26.6443 28.9506 26.7951 29.3165 27.0721 29.592C27.3492 29.8675 27.7172 30.0196 28.1074 30.0196C28.9143 30.0196 29.5727 29.3672 29.5727 28.5627V7.75619C29.5727 5.23913 27.5133 3.18933 24.9795 3.18933H17.9945V12.7484L23.9177 6.83047C24.2258 6.52411 24.6359 6.36101 25.0549 6.36101" fill="#FFC74F"/>
<path d="M16.3885 33.209H7.80079C3.50027 33.209 0 29.7287 0 25.4528V4.64629C0 2.08515 2.09706 9.15527e-05 4.67294 9.15527e-05C5.92319 9.15527e-05 7.09586 0.484989 7.98035 1.36221C8.86262 2.24164 9.34809 3.4098 9.34587 4.6507L9.33036 21.3841L15.2513 15.4705C15.7102 15.0121 16.3996 14.8754 17.0004 15.1223C17.6011 15.3691 17.9935 15.951 17.9935 16.5968V31.6154C17.9935 32.497 17.2752 33.2112 16.3885 33.2112M4.67294 3.18939C3.86604 3.18939 3.20766 3.8418 3.20766 4.64629V25.4528C3.20766 27.9699 5.26703 30.0197 7.80079 30.0197H14.7836V20.4606L8.8604 26.3785C8.40153 26.837 7.7099 26.9736 7.11138 26.7268C6.51063 26.4799 6.12048 25.898 6.12048 25.2522L6.13822 4.6507C6.13822 4.26058 5.98748 3.8947 5.71038 3.61919C5.43329 3.34368 5.0653 3.1916 4.67294 3.1916" fill="#FF7500"/>
<path d="M71.5907 24.9337H71.2804C70.6841 25.6567 69.9636 26.276 69.1213 26.7918C68.2789 27.3075 67.1949 27.5654 65.8715 27.5654C64.885 27.5654 63.9584 27.4045 63.0894 27.0827C62.2205 26.7609 61.4601 26.3157 60.8128 25.747C60.1633 25.1806 59.6579 24.4973 59.2943 23.6972C58.9308 22.8972 58.749 22.0199 58.749 21.0656C58.749 20.1112 58.9441 19.2031 59.332 18.4163C59.72 17.6294 60.2653 16.9528 60.9658 16.3841C61.6663 15.8176 62.4887 15.3856 63.4375 15.0881C64.384 14.7928 65.4148 14.6429 66.5321 14.6429C67.7779 14.6429 68.802 14.7399 69.6067 14.9338C70.4114 15.1278 71.072 15.3283 71.5907 15.5333V14.9536C71.5907 13.9486 71.1873 13.1154 70.3848 12.4586C69.5801 11.8018 68.5804 11.4712 67.3878 11.4712C65.6232 11.4712 64.1313 12.2052 62.9121 13.6775L59.2145 11.1626C61.2384 8.63455 64.0005 7.37161 67.503 7.37161C70.4602 7.37161 72.7169 8.06149 74.273 9.44124C75.8292 10.821 76.6073 12.8642 76.6073 15.573V27.4508H71.5885V24.9359L71.5907 24.9337ZM71.5907 19.2472C70.9944 18.9629 70.3782 18.7381 69.742 18.5705C69.1057 18.403 68.4119 18.3193 67.6604 18.3193C66.4412 18.3193 65.5013 18.5838 64.8385 19.1127C64.1779 19.6417 63.8454 20.2919 63.8454 21.0656C63.8454 21.8392 64.1624 22.4585 64.7986 22.9236C65.4348 23.3887 66.1663 23.6201 66.9976 23.6201C67.6715 23.6201 68.2944 23.4989 68.8663 23.252C69.436 23.0074 69.9237 22.6856 70.325 22.2844C70.7262 21.8855 71.0388 21.4204 71.2582 20.8914C71.4777 20.3625 71.5885 19.8136 71.5885 19.2472" fill="#002B5B"/>
<path d="M89.2831 7.36954C90.7616 7.36954 92.1161 7.6208 93.3486 8.12333C94.5811 8.62586 95.6452 9.32235 96.5385 10.2128C97.4341 11.1032 98.1346 12.1656 98.64 13.4043C99.1454 14.643 99.3982 15.9963 99.3982 17.4664C99.3982 18.9365 99.1454 20.2899 98.64 21.5285C98.1346 22.7672 97.4341 23.8296 96.5385 24.7201C95.643 25.6105 94.5789 26.307 93.3486 26.8095C92.1161 27.3121 90.7616 27.5633 89.2831 27.5633C87.8045 27.5633 86.4478 27.3121 85.2175 26.8095C83.985 26.307 82.9209 25.6105 82.0276 24.7201C81.1342 23.8296 80.4315 22.7672 79.9261 21.5285C79.4207 20.2899 79.168 18.9365 79.168 17.4664C79.168 15.9963 79.4207 14.643 79.9261 13.4043C80.4315 12.1656 81.132 11.101 82.0276 10.2128C82.9232 9.32235 83.985 8.62586 85.2175 8.12333C86.45 7.6208 87.8045 7.36954 89.2831 7.36954ZM89.2831 22.8841C89.9304 22.8841 90.5599 22.7628 91.1695 22.516C91.7791 22.2713 92.3178 21.9165 92.7833 21.4514C93.2511 20.9863 93.619 20.4199 93.8917 19.7499C94.1644 19.0798 94.2996 18.3194 94.2996 17.4664C94.2996 16.6134 94.1644 15.8552 93.8917 15.183C93.619 14.513 93.2488 13.9443 92.7833 13.4815C92.3156 13.0164 91.7769 12.6637 91.1695 12.4169C90.5599 12.1722 89.9304 12.0488 89.2831 12.0488C88.6358 12.0488 87.973 12.1722 87.3766 12.4169C86.7803 12.6615 86.2483 13.0164 85.7806 13.4815C85.3128 13.9465 84.9449 14.513 84.6722 15.183C84.3995 15.853 84.2643 16.6134 84.2643 17.4664C84.2643 18.3194 84.3995 19.0798 84.6722 19.7499C84.9449 20.4199 85.3151 20.9885 85.7806 21.4514C86.2483 21.9165 86.7781 22.2713 87.3766 22.516C87.973 22.7606 88.6092 22.8841 89.2831 22.8841Z" fill="#002B5B"/>
<path d="M101.96 7.36954H107.679L110.831 20.0232H111.104L114.879 7.36954H120.131L123.946 20.0232H124.218L127.331 7.36954H132.972L126.863 27.5655H121.377L117.564 14.8303H117.291L113.478 27.5655H108.069L101.96 7.36954Z" fill="#002B5B"/>
<path d="M154.68 22.3815C153.798 23.9288 152.612 25.1807 151.12 26.1351C149.628 27.0894 147.806 27.5655 145.653 27.5655C144.199 27.5655 142.858 27.3143 141.626 26.8117C140.393 26.3092 139.322 25.6061 138.416 24.7024C137.507 23.7988 136.802 22.7364 136.294 21.5109C135.789 20.2854 135.536 18.9388 135.536 17.4686C135.536 16.1021 135.782 14.8061 136.274 13.5806C136.766 12.3552 137.454 11.2862 138.336 10.3693C139.218 9.4546 140.262 8.72505 141.468 8.18284C142.674 7.64064 144.004 7.36954 145.456 7.36954C146.986 7.36954 148.349 7.6208 149.542 8.12333C150.734 8.62586 151.734 9.32235 152.539 10.2128C153.343 11.1033 153.953 12.1546 154.368 13.3668C154.782 14.5791 154.99 15.8949 154.99 17.3121V17.7772C154.964 17.9315 154.953 18.0748 154.953 18.2026C154.926 18.3326 154.913 18.4737 154.913 18.628H140.555C140.659 19.4016 140.872 20.0672 141.198 20.6205C141.521 21.1759 141.923 21.6388 142.404 22.0134C142.882 22.3881 143.408 22.6592 143.98 22.8268C144.549 22.9943 145.135 23.078 145.731 23.078C146.899 23.078 147.864 22.8135 148.631 22.2845C149.395 21.7556 149.998 21.0921 150.439 20.2921L154.68 22.3815ZM150.049 15.0309C150.023 14.6959 149.914 14.3212 149.719 13.909C149.524 13.4969 149.238 13.109 148.863 12.7475C148.486 12.386 148.021 12.0907 147.462 11.857C146.904 11.6256 146.236 11.5088 145.458 11.5088C144.368 11.5088 143.408 11.8174 142.579 12.4367C141.748 13.0561 141.164 13.9201 140.828 15.0287H150.049V15.0309Z" fill="#002B5B"/>
<path d="M176.69 22.3815C175.808 23.9288 174.622 25.1807 173.13 26.1351C171.638 27.0894 169.816 27.5655 167.663 27.5655C166.211 27.5655 164.868 27.3143 163.635 26.8117C162.403 26.3092 161.332 25.6061 160.425 24.7024C159.517 23.7988 158.809 22.7364 158.304 21.5109C157.799 20.2854 157.546 18.9388 157.546 17.4686C157.546 16.1021 157.792 14.8061 158.284 13.5806C158.776 12.3552 159.463 11.2862 160.346 10.3693C161.228 9.4546 162.272 8.72505 163.478 8.18284C164.684 7.64064 166.014 7.36954 167.466 7.36954C168.995 7.36954 170.359 7.6208 171.551 8.12333C172.744 8.62586 173.744 9.32235 174.548 10.2128C175.353 11.1033 175.963 12.1546 176.377 13.3668C176.792 14.5791 177 15.8949 177 17.3121V17.7772C176.974 17.9315 176.963 18.0748 176.963 18.2026C176.936 18.3326 176.923 18.4737 176.923 18.628H162.565C162.669 19.4016 162.882 20.0672 163.208 20.6205C163.531 21.1759 163.932 21.6388 164.413 22.0134C164.894 22.3881 165.418 22.6592 165.99 22.8268C166.559 22.9943 167.144 23.078 167.741 23.078C168.909 23.078 169.873 22.8135 170.64 22.2845C171.405 21.7556 172.008 21.0921 172.449 20.2921L176.69 22.3815ZM172.061 15.0309C172.035 14.6959 171.926 14.3212 171.731 13.909C171.536 13.4969 171.25 13.109 170.875 12.7475C170.498 12.386 170.033 12.0907 169.474 11.857C168.916 11.6256 168.248 11.5088 167.47 11.5088C166.38 11.5088 165.42 11.8174 164.591 12.4367C163.759 13.0561 163.176 13.9201 162.84 15.0287H172.061V15.0309Z" fill="#002B5B"/>
<path d="M53.6937 27.5655C52.3126 27.5655 51.1932 26.5428 51.1932 25.2799V15.6569C51.1932 13.6071 49.3688 11.9408 47.1254 11.9408C44.8821 11.9408 43.0577 13.6093 43.0577 15.6569V25.2799C43.0577 26.5428 41.9382 27.5655 40.5571 27.5655C39.1761 27.5655 38.0566 26.5428 38.0566 25.2799V15.6569C38.0566 11.0856 42.1244 7.36954 47.1276 7.36954C52.1309 7.36954 56.1986 11.0878 56.1986 15.6569V25.2799C56.1986 26.5428 55.0792 27.5655 53.6981 27.5655" fill="#002B5B"/>
</svg>
